<svg xmlns="http://www.w3.org/2000/svg" width="222.5" height="144"><g fill="#8D734A"><path d="M150.159 62.586l-.003-.282c0-1.051-.017-2.056-.138-2.805-.116-.819-.402-1.246-.49-1.292-.114-.077-.178-.145-.657-.161-1.402.061-1.641.352-2.01.822-.312.436-.502 1.323-.497 2.195l.001.059v22.358c1.242.034 2.516.07 3.791.107l.003-21.001zM119.616 71.364c1.267.017 2.581.045 3.953.086v-.472c-1.374.05-2.693.086-3.95.106l-.003.28zM135.861 75.584l-1.789.058v1.053l1.789.062v-1.173zM135.861 84.006c-3.583.075-7.061.136-10.259.144.064.079.368.056.368.056 3.159 0 6.512.175 9.891.372v-.572zM190.189 71.927l1.184-.038.069-1.388-1.253-.046v1.472zM165.394 95.866h-4.732v.482l.345-.002c1.412 0 2.9.011 4.388.017v-.497zM135.861 79.038l-1.789.058v.898l1.789.053v-1.009zM135.861 87.57c-.625.023-1.225.044-1.791.059v.375c.589.008 1.179.016 1.791.03v-.464zM119.606 74.47l.089.2c.91.01 2.266.04 3.873.082v-.496c-2.185.071-3.705.12-3.962.118v.096zM135.861 80.719l-1.789.072v.792l1.789.064v-.928zM119.608 73.023l3.96.132v-.485c-1.491.044-2.85.074-3.96.085v.268zM135.861 77.304l-1.789.068v.935l1.789.059v-1.062zM135.861 85.864l-1.789.042v.338l1.789.047v-.427zM165.394 94.097h-.106c-1.578 0-3.158.01-4.626.022v.705c1.514.011 3.173.021 4.732.021v-.748zM206.043 64.358c-1.237-.041-2.503-.093-3.779-.148l-.038.718c1.276-.05 2.553-.098 3.82-.135v-.044l-.003-.312v-.079zM202.19 65.903l-.021.658c1.325-.052 2.625-.097 3.877-.131v-.402l-.312-.006c-1.173-.028-2.357-.069-3.544-.119zM202.098 71.546l3.948-.126v-.359c-1.287-.028-2.606-.071-3.945-.12l-.003.605zM206.014 62.686c-1.195-.042-2.409-.092-3.632-.147l-.06.74c1.233-.06 2.472-.12 3.698-.162l-.006-.431zM202.132 68.196c1.323-.05 2.627-.091 3.914-.122v-.361c-1.255-.037-2.558-.084-3.901-.141l-.013.624zM202.11 69.876l3.936-.131v-.369c-1.282-.033-2.591-.074-3.929-.123l-.007.623zM190.189 88.039l1.294-.021-.024-.408-1.27-.027v.456zM150.156 83.753c-1.255.012-2.518.026-3.791.046v1.298c.479.012.963.029 1.435.035.8.011 1.575.047 2.356.076v-1.455zM205.872 61.004c-1.086-.04-2.18-.084-3.287-.135l-.042.241-.062.518c1.156-.049 2.304-.094 3.434-.135l-.043-.489zM205.489 59.324c-.836-.033-1.679-.068-2.528-.107-.072.211-.141.459-.204.741.973-.042 1.935-.08 2.89-.114-.05-.181-.101-.364-.158-.52zM190.189 84.822l1.146-.03-.019-.599-1.128-.037v.666zM190.189 78.363l1.054-.032.005-.976-1.059-.034v1.042zM202.093 72.616l-.001.551 3.953-.119v-.312c-1.24-.026-2.552-.067-3.933-.121l-.019.001zM190.189 81.613l1.073-.033-.012-.903-1.062-.032v.968zM190.189 83.214l1.103-.031-.017-.754-1.086-.037v.822zM190.189 79.946l1.056-.032-.003-.894-1.053-.032v.958zM190.189 86.473l1.211-.027-.027-.575-1.184-.025v.627zM190.189 76.775l1.063-.037.013-1.128-1.076-.041v1.206zM202.091 74.757c1.362-.036 2.677-.061 3.952-.075v-.254c-1.036-.033-2.404-.082-3.952-.135v.464zM150.156 85.525c-1.164.025-2.444.055-3.791.087v.968l3.789.101.002-1.156zM175.896 94.717c1.2-.014 2.489-.026 3.799-.037v-.429c-1.255-.015-2.53-.031-3.799-.05v.516zM146.364 96.3c1.239.01 2.535.02 3.79.027v-.412l-.287.001c-.911 0-2.176.007-3.503.014v.37zM165.394 99.302l-1.888-.015c-1.001-.008-1.936-.012-2.845-.015v.353l1.487.003 3.245-.003v-.323zM165.394 97.574c-1.354-.002-2.725-.005-4.076-.005h-.656v.441l.873-.002c1.278 0 2.562-.001 3.859-.004v-.43zM131.729 56.449v-.94l-.66.024c.211.268.42.537.603.825l.057.091zM165.394 92.352c-.866-.005-1.662-.009-2.451-.009-.745 0-1.487.001-2.283.008v.837l2.991.003 1.743-.003v-.836zM190.189 89.685l1.409-.014-.027-.368-1.382-.025v.407zM146.365 93.016c1.256.027 2.522.051 3.789.074v-.624c-1.271.019-2.534.037-3.789.058v.492zM165.394 90.596l-1.937-.013c-.797-.01-1.73-.013-2.705-.013h-.093v1.051c1.567-.001 3.163-.009 4.734-.019v-1.006zM147.951 94.694l2.203.024v-.505c-1.283.013-2.551.025-3.789.04l-.001.424 1.587.017zM175.896 96.342c1.006-.018 2.162-.037 3.412-.037h.387v-.365c-1.187-.013-2.438-.021-3.799-.022v.424zM191.695 67.126l-1.506-.052v1.605l1.377-.043c.039-.511.081-1.023.129-1.51zM150.154 90.764c-1.276.026-2.544.052-3.789.073v.625c1.25.024 2.515.046 3.789.066v-.764zM150.154 89.031c-1.287.024-2.562.051-3.789.076v.762l3.789.057v-.895zM150.154 87.262c-1.274.023-2.537.048-3.789.074v.891c.961.015 1.927.037 2.895.076l.895.028v-1.069zM165.394 88.882c-.912-.006-1.814-.01-2.743-.01l-1.991.007v1.172l1.872.006c.992 0 1.942-.006 2.862-.014v-1.161zM190.189 70.288l1.27-.044c.027-.485.058-.968.094-1.431l-1.363-.053v1.528zM179.695 93.059v-.523c-1.331-.02-2.62-.041-3.799-.061v.629l3.799-.045zM165.394 87.104c-1.399-.005-2.878-.015-4.278-.015l-.456.001v1.362h2.235l2.499-.003v-1.345zM175.896 91.501l3.799-.046v-.625c-1.277-.019-2.544-.04-3.799-.062v.733zM160.782 101.278c1.52-.001 3.007-.006 4.527-.013l.057-.292-4.668-.008c.02.132.048.228.084.313zM175.896 83.756v1.439c1.27-.029 2.537-.059 3.799-.092l-.001-1.28c-1.288-.032-2.552-.053-3.798-.067zM151.779 15.077c5.318 0 9.459.128 13.207.13.954-.002 1.883-.009 2.801-.03l3.771-.049c4.343-.104 9.79-.164 15.1-.202 1.897-.014 3.695-.048 5.638-.051h.164l.116-.002-.32-.237c-3.628-.048-6.591-.014-10.379-.098-.93-.021-2.302-.019-3.723-.05-2.49-.053-5.145-.099-7.902-.102-6.507 0-7.673 0-14.245.003-4.049 0-8.264.069-11.325.149-3.943.104-6.755.046-10.047.086l-.344.251 1.282-.006c5.07 0 10.785.208 16.206.208zM190.189 91.313l1.558-.013-.031-.317-1.526-.021v.351zM119.631 69.731c1.306.025 2.612.049 3.938.089v-.533c-1.313.05-2.625.08-3.934.105l-.004.339zM175.896 97.94c1.226-.002 2.568-.006 3.8-.01v-.28c-1.18-.005-2.391-.01-3.8-.02v.31zM121.606 58.046c-.477.061-.466.023-.583.152l1.296.047c-.17-.129-.309-.176-.713-.199zM155.001 18.6c1.627.014 2.977.049 4.932.051 2.561-.002 5.061.004 7.465.007 3.505-.002 6.806-.019 9.803-.109 3.883-.117 8.336-.268 11.872-.3l.754-.007 4.059.037c.856 0 1.737-.021 2.659-.064l-.277-.263-.436-.009-1.694.019h-.031c-1.845-.003-3.254-.1-5.284-.1-3.872 0-8.118-.15-12.027-.25-1.343-.04-2.885-.047-4.457-.047l-4.383.009c-.926 0-1.799-.005-2.586-.013-1.494-.024-3.028-.033-4.59-.033-10.025 0-21.187.38-30.181.431l-.251.24h.195c7.905.011 16.045.324 24.458.401zM157.318 16.928c3.173 0 6.256-.036 8.753-.04 2.573-.005 5.458-.011 7.956-.051 6.863-.105 13.985-.298 20.63-.3l-.273-.235c-9.189-.07-19.634-.354-30.977-.356-6.185.002-10.662.124-16.158.153-5.622.027-10.132.201-14.759.201l-.28.24c4.867.075 11.397.023 16.697.25 2.64.109 5.563.138 8.411.138zM175.896 88.308l3.799-.078v-.889l-3.799-.089v1.056zM135.863 73.854l-1.791.057v1.154l1.791.057v-1.268zM166.122 22.122c5.149 0 8.528-.044 13.038-.151 7.321-.177 13.823-.456 20.351-.456l.249.001-.204-.235c-7.827-.078-18.185-.306-26.611-.475-1.977-.042-14.72 0-17.666 0-6.518 0-13.163.215-18.902.324-3.092.06-5.924.127-8.453.152h-.608l-.208.24c7.211.071 13.932.224 21.749.449 5.145.151 10.372.151 17.265.151zM150.681 20.271l.287.002c.924 0 1.854.002 2.821.037 2.484.088 4.452.105 6.745.105 1.183-.002 2.455-.005 3.925-.005 4.364 0 7.925-.109 12.384-.151 7.25-.07 13.777-.408 19.923-.408l1.114.007.135-.005.204.001-.224-.232c-5.184-.001-10.521-.219-16.118-.303-6.728-.105-13.874-.184-20.866-.184-2.416-.003-4.812.011-7.17.032-8.687.081-17.14.41-24.959.447l-.19.2c6.268.072 13.329.312 19.962.444.684.013 1.355.013 2.027.013zM210.717 53.096l1.218-.016-.007-.247c-.601-.003-1.152-.014-1.698-.026l.487.289zM179.695 85.635c-1.491-.032-2.793-.06-3.799-.084v1.226l3.799-.078v-1.064zM135.864 68.787c-.599.018-1.198.035-1.791.057v1.371l1.791.07v-1.498zM135.863 72.22l-1.791.074v1.204l1.791.058v-1.336zM135.863 70.468l-1.791.067v1.307l1.791.069v-1.443zM204.093 58.046c-.562.072-.452.008-.664.24l1.35-.057c-.158-.119-.3-.162-.686-.183zM131.729 52.19c-1.713.072-3.309.156-4.855.24.764.311 1.476.678 2.108 1.122l2.747.124v-1.486zM131.729 53.856l-2.25.091c.522.415 1.008.862 1.426 1.363l.823.033v-1.487zM175.896 99.602c1.249-.013 2.537-.024 3.8-.028v-.231c-1.344-.008-2.581-.034-3.8-.051v.31zM146.364 97.946c.831.011 1.631.019 2.396.019l1.394.006.001-.334-1.322.005-2.468-.005v.309zM179.695 89.068c-1.252-.025-2.516-.049-3.799-.071v.955c1.285-.044 2.546-.076 3.799-.104v-.78zM135.861 89.327h-.023l-1.768-.003v.345l1.791.028v-.37zM146.364 99.581l3.789.015v-.271c-1.277.009-2.543.015-3.789.017v.239zM135.861 90.972l-1.791.025v.285l1.791.011v-.321zM135.861 92.847v-.14l-.923.017.418.118.505.005zM157.264 13.415c1.057.007 2.395.012 3.833.014 3.575-.002 7.762-.025 9.709-.062.449-.011.939-.017 1.433-.017 1.088 0 2.2.017 2.988.017h.51l4.581-.102c.595-.009 1.333-.013 2.062-.013 1.099 0 2.177.007 2.718.013h.424l3.653-.051.04-.001.897.009h.125l-.385-.247-.13.003h-.093c-3.788-.015-6.034-.1-10.472-.1-3.167 0-6.325-.042-9.107-.101-.619-.016-1.219-.018-1.813-.018l-3.724.018c-7.381 0-13.319.061-19.728.101-2.816.015-4.721.105-7.306.105l-.466-.003-.366.235c3.164.009 4.781.05 8.037.05 3.815-.001 9.223.123 12.58.15zM135.864 67.095l-1.791.068v1.417l1.791.069v-1.554zM190.189 73.53l1.122-.034.05-1.288-1.172-.038v1.36zM119.854 63.116c1.207.035 2.44.077 3.694.126l-.023-.678c-1.22.053-2.437.102-3.637.14l-.034.412zM122.964 59.216l-2.521.1-.138.529 2.895.104c-.07-.271-.151-.515-.236-.733zM135.864 65.406c-.603.015-1.209.044-1.813.066.011.357.02.714.022 1.071v.419l1.791.069v-1.625zM120.018 61.473c1.14.034 2.281.079 3.426.125l-.059-.686-.022-.121c-1.157.042-2.267.084-3.268.123l-.033.193-.294-.04.294.042-.044.364zM173.083 6.569h2.04c-.344-.084-.691-.161-1.039-.238-4.169-.015-7.466-.022-10.731-.022-3.251 0-6.489.007-10.557.021l-.867.199c3.825.049 6.786.063 9.579.063 3.598 0 6.942-.023 11.575-.023zM190.189 75.166l1.086-.04.025-1.213-1.111-.038v1.291zM163.002 8.282c1.061.006 2.05.007 2.996.007 4.397 0 7.747-.061 12.368-.059l1.043.002h1.075l-.646-.237-.407.001c-1.525 0-2.815-.045-4.046-.05-1.596-.011-3.211-.016-4.841-.016-4.45.001-9.001.025-13.499.023-1.647 0-3.287-.001-4.911-.007l-.299-.004c-1.472 0-2.739.054-4.449.054l-.353-.001-.646.239.11-.002c6.361.042 10.492.012 16.505.05zM121.576 51.476h-.007l.155-.002c.933 0 1.801.096 2.632.243 2.735.109 5.447.224 7.374.304v-.542h14.635v.597c.896-.341 1.992-.599 3.29-.599h.08800000000000001c2.812 0 5.617.612 7.729 2.607 2.104 2 3.187 5.114 3.187 9.34v.047l.001 23.434 1.521.012c1.089 0 2.162-.011 3.214-.027l.002-28.295c-.008-.764-.159-1.106-.351-1.309-.187-.2-.693-.542-2.075-.624l-1.71-.092v-5.09h14.637v.598c.894-.342 1.989-.6 3.287-.6h.091c2.812 0 5.612.612 7.729 2.607 2.106 2.005 3.186 5.122 3.186 9.353v3.6159999999999997l1.522-.055c.054-.535.114-1.054.18-1.558l-1.001-.04 1.01-.042c.073-.546.154-1.072.239-1.584l-1.098-.038 1.108-.025c.093-.555.196-1.088.309-1.603l-.768-.027.777-.03.031-.157c.112-.5.234-.981.367-1.448l-.62-.025.633-.025c.16-.56.341-1.088.534-1.6l-1.026-.038 1.059-.04c.211-.55.444-1.066.697-1.558l-1.71-.067 1.772-.055c.282-.536.582-1.049.921-1.512l-2.281-.098 2.446-.106c.396-.515.83-.98 1.307-1.396-1.154-.062-2.304-.121-3.442-.168l3.856-.17c.239-.188.482-.375.744-.539.407-.253.834-.461 1.272-.648-1.98-.107-3.944-.218-5.896-.301 2.592-.082 5.363-.223 8.146-.356.889-.167 1.81-.265 2.782-.265h-.004l.158-.002c.497 0 .971.033 1.438.075 2.104-.082 4.168-.14 6.104-.14h.135l-.004-.198c-3.375-.068-16.683-.674-19.626-.755 5.973-.214 13.337-.619 18.854-.703l.615-.009h.047l-.018-.229-.034-.002c-6.01-.037-12.731-.513-19.283-.72 6.316-.23 13.151-.691 19.077-.703h.103l-.032-.242c-5.977-.028-13.127-.521-19.71-.727.848-.021 14.1-.651 19.531-.687l-.036-.247c-6.267-.032-13.098-.517-19.765-.722 2.725-.1 15.716-.649 19.503-.742l-.034-.196c-6.081-.026-13.137-.512-19.983-.72 6.359-.223 13.508-.685 19.688-.699l-.055-.241c-1.874-.066-15.429-.549-20.103-.714.539-.012 19.696-.709 19.771-.708l-.068-.238c-6.39-.031-13.533-.518-20.639-.722.583-.009 20.099-.702 20.233-.701l-.065-.233c-.211-.002-18.087-.64-21.059-.725 6.652-.222 13.759-.674 20.595-.701l-.082-.239c-6.324-.038-14.277-.521-21.572-.726 2.992-.104 21.033-.697 21.063-.697l-.094-.236c-6.493-.035-14.448-.522-22.109-.725 7.283-.227 14.47-.672 21.446-.7l.1-.006-.103-.23h-.147c-3.812-.065-19.879-.654-22.906-.718 7.591-.223 15.298-.679 22.304-.707h.104l-.107-.24c-7.009-.046-15.557-.531-23.663-.724 7.517-.211 22.951-.697 22.951-.697-.041-.078-.167-.231-.187-.231-.059 0-21.925-.649-25.309-.738 8.47-.261 16.421-.569 24.6-.689h.001l-.139-.24c-7.765-.097-17.343-.534-26.176-.722 1.074-.036 24.856-.709 25.337-.7l-.152-.24c-8.124-.035-18.235-.607-27.938-.735 8.97-.11 27.024-.686 27.024-.686l-.17-.238c-.028 0-26.402-.703-29.85-.705-1.31 0 18.458-.672 28.838-.717l-.173-.24c-2.854-.022-29.868-.767-29.562-.767 8.972 0 28.001-.66 28.444-.656l-.187-.238c-2.749-.004-24.835-.504-32.132-.558-.983-.012-11.088-.002-11.22-.002-9.812 0-22.188.505-31.743.56l-.19.241c3.166.077 31.444.716 31.444.716-10.534 0-22.213.587-32.558.702l-.177.249c7.874.085 27.372.687 30.249.694-1.108.01-22.743.686-31.253.717l-.175.245c9.622.03 28.144.712 27.798.717-1.186.018-21.379.627-28.708.696l-.137.216c1.042.06 24.803.748 24.412.748-5.544 0-22.793.664-25.284.727l-.121.21c7.246 0 14.982.534 22.736.658.728.011-19.003.772-23.304.772h-.208l-.125.244c2.311.047 17.894.55 23.147.692-3.292.067-19.555.653-23.853.716l-.113.25c6.797.056 14.683.44 21.942.694-7.6.153-15.813.681-22.579.714l-.112.251c7.46.07 14.275.45 21.423.706-7.688.154-15.718.652-21.997.754l-.078.195c3.613.001 18.323.591 21.279.708-5.392.098-19.957.668-21.784.701l-.086.252h.079c1.992.056 15.454.542 20.147.701-7.068.202-14.545.679-20.687.716l-.071.245c6.01.016 13.548.478 20.025.703-7.02.208-14.688.64-20.439.759l-.056.196.147-.002c3.478 0 16.949.586 19.704.706-6.876.146-13.94.696-20.183.719l-.055.244c6.117.023 12.978.469 19.28.698-6.662.208-13.454.672-19.574.716l-.044.247c6.009.023 13.047.473 18.994.691-4.807.156-18.724.646-19.239.675l-.045.3c6.341.052 12.885.438 19.008.704-6.573.161-13.685.696-19.187.713l-.032.239c5.963.026 12.59.461 18.768.696-6.348.212-13.483.691-18.905.72l-.018.246c5.938.028 12.723.473 18.719.697-2.802.095-15.64.688-18.829.714l-.005.247c1.02.004 2.89.06 5.072.137.502-.048 1.006-.078 1.528-.078zM135.864 58.593c-.008-.764-.159-1.108-.349-1.309-.187-.2-.695-.542-2.077-.624l-1.633-.091.264.485.923.034-.887.033c.281.515.532 1.044.742 1.592l1.022.042-.988.04c.192.511.351 1.036.49 1.569l1.287.054-1.266.033c.133.521.241 1.05.331 1.586l1.052.043-1.039.041c.084.518.155 1.039.203 1.566l1.354.053-1.344.048c.046.507.079 1.016.097 1.525l1.816.072v-6.792zM119.692 66.402c1.274.028 2.571.066 3.876.114v-.571c-1.311.054-2.595.083-3.865.104l-.011.353zM119.654 68.082c1.138.032 2.474.074 3.915.12v-.602c-1.33.053-2.629.089-3.907.119l-.008.363zM155.504 11.655c3.402.001 4.919.025 7.098.048l1.096.007c1.877 0 3.267-.054 5.798-.056.932-.005 2.08-.007 3.124-.007.63 0 1.222.002 1.706.007l.339.001c1.211 0 2.379-.052 3.841-.052 3.221 0 5.053-.04 8.004-.05h.955l.057-.002-.412-.236c-3.846-.015-7.102-.045-11.121-.099l-.804-.009-2.102.014-.769-.005c-2.551-.044-5.4-.051-9.31-.051-2.453 0-4.217-.007-5.895-.009-2.076 0-4.028.013-6.991.06-3.64.056-6.854.082-10.35.096l-.422.242c2.867.005 4.734.033 7.449.05 3.521.019 5.323.051 8.709.051zM119.774 64.383l-.021.404c1.152.036 2.448.08 3.815.128v-.363l-.004-.309c-1.288.055-2.551.102-3.79.14zM179.688 62.242c.002-1.028-.021-2.007-.138-2.743-.117-.822-.401-1.246-.492-1.292-.113-.077-.178-.145-.657-.161-1.4.061-1.64.352-2.008.822-.311.436-.499 1.323-.497 2.195l.001.059-.001 22.429c1.268-.012 2.534-.034 3.798-.059l-.004-20.918-.002-.332zM135.861 82.399c-3.465.213-6.809.452-11.185.471.061.082.276.082.428.082 3.265 0 7.043.139 10.757.261v-.814zM164.568 9.964h.352c1.078 0 2.245-.007 3.67-.021 3.027-.033 6.633-.036 9.01-.05l1.385-.007 3.175.007h.624l.901-.007.469-.006.149-.005.044-.002-.471-.214-.137-.002c-6.887-.016-11.721-.102-20.885-.104-4.776.002-7.311.064-10.875.104l-1.265.004-5.548-.04c-.676 0-1.392.007-2.135.022l-.556.25c5.104.016 7.705.049 14.185.049 3.542.001 5.554.022 7.908.022zM190.189 92.955l1.701-.014.046-.033-.029-.216c-.473-.001-1.052-.005-1.718-.012v.275z"/></g><path fill="#fff" d="M44.443 103.349c-2.067-.182-2.925-1.542-2.925-3.532v-38.693c0-2.171.685-4.885 4.305-4.885 3.101 0 3.101 3.259 3.101 6.332l-.006 42.309h11.028v-1.531c-3.275-.182-4.136-1.542-4.136-3.532v-36.345c0-7.953-3.958-9.944-9.128-9.944-1.204 0-2.065.182-2.925.452-.688.271-1.38.545-1.894.906h-.344v-17.812h-11.023v1.574c3.27.179 4.132 1.499 4.132 3.49v57.679c0 1.99-.862 3.351-4.132 3.532v1.531h13.947v-1.531z"/><path fill="#fff" d="M23.837 38.882c-.689 0-1.722-.542-2.754-.992-1.033-.454-2.068-.816-3.787-.816-12.229 0-13.608 16.636-13.608 32.729 0 18.444 1.379 35.077 13.95 35.077 8.095 0 10.504-4.519 10.504-14.646v-3.253h-5.51v5.969c0 6.866-2.41 9.035-4.994 9.035-2.581 0-4.994-3.703-4.994-32.183 0-26.126 2.413-29.835 4.994-29.835 2.584 0 4.994 3.254 4.994 10.758v7.697h5.51v-21.348h-3.098c-.173 1.085-.691 1.808-1.207 1.808z"/><path fill="#fff" d="M71.68 53.286c-8.607 0-11.021 6.392-11.021 25.376 0 20.07 2.414 26.218 11.021 26.218 8.614 0 10.681-5.063 10.681-12.202v-5.696h-5.169v5.787c0 6.325-1.374 9.398-5.511 9.398-3.787 0-3.787-4.52-3.787-22.329h14.468v-13.29c-.001-6.87-2.068-13.262-10.682-13.262zm3.792 23.839h-7.579c0-15.551 0-20.886 3.787-20.886 3.792 0 3.792 5.335 3.792 8.5v12.386z"/><path fill="#fff" d="M214.749 79.838v-13.29c0-3.93-.686-7.697-2.877-10.208l-.184-.192c-.483-.521-1.039-.981-1.672-1.374-.18-.111-.355-.225-.549-.325-1.395-.725-3.128-1.142-5.274-1.158l-.121-.005c-.468 0-.914.022-1.347.061-1.142.103-2.159.345-3.063.743-.656.288-1.253.659-1.795 1.119-.156.133-.308.272-.453.419-.392.391-.752.834-1.083 1.336l-.169.273c-.264.427-.508.893-.73 1.399l-.105.229c-.189.451-.365.938-.529 1.451l-.063.202c-.14.46-.27.949-.39 1.459l-.049.195c-.108.47-.207.965-.3 1.477l-.031.19c-.081.463-.157.944-.228 1.444l-.032.229c-.062.455-.115.928-.167 1.41l-.026.272c-.044.444-.086.901-.125 1.371l-.025.323c-.032.42-.062.852-.089 1.292l-.024.392-.062 1.26-.02.436-.041 1.172-.016.536-.024 1.083-.01.622-.014.993-.006.735-.003.867-.002.385.002.416.003.782.004.87.012.794.014.963.015.644.028 1.119.017.502.043 1.152.023.503.065 1.239.021.346c.027.458.06.903.094 1.338l.023.322c.04.465.081.916.125 1.357l.028.273c1.087 10.151 4.058 13.597 10.505 13.597 8.605 0 10.677-5.063 10.677-12.202v-5.696h-5.169v5.787c0 6.325-1.378 9.398-5.508 9.398-3.423 0-3.755-3.689-3.787-17.525l-.001-.255-.003-1.392v-3.157h14.467zm-14.468-3.394v-1.6349999999999998l.002-.581.002-1.007.002-.678.003-.939.006-.733.008-.934.008-.754.014-.913.013-.773.022-.864.023-.81.032-.826.044-.868.047-.765.07-.908.077-.751c.035-.317.071-.634.112-.919.039-.267.086-.506.132-.747.062-.327.133-.628.209-.909.074-.273.154-.524.243-.754.127-.335.27-.633.429-.884.221-.347.477-.613.768-.81.426-.29.923-.442 1.525-.442.533 0 .984.116 1.378.306.521.253.932.651 1.25 1.153.091.143.177.289.255.446.186.381.334.802.449 1.248l.092.392c.091.413.157.841.209 1.276l.042.371c.04.438.065.878.083 1.308l.01.343c.012.463.015.909.016 1.326l.001.331v12.385h-7.575v-.681z"/><path fill="#fff" d="M132.24 65.243c-.02-.467-.055-.928-.096-1.384l-.03-.246c-.049-.481-.116-.954-.198-1.419l-.04-.232c-.093-.497-.201-.984-.334-1.456l-.068-.224c-.145-.487-.321-.954-.517-1.406l-.108-.248c-.232-.502-.494-.981-.795-1.428l-.175-.238c-.352-.485-.742-.94-1.192-1.344-.167-.149-.348-.285-.529-.421-.581-.439-1.24-.81-1.981-1.107-1.273-.509-2.78-.805-4.589-.805-2.048 0-3.744.367-5.142 1.175l-.471.297c-4.103 2.813-5.408 9.958-5.408 23.903 0 20.07 2.413 26.218 11.021 26.218 8.614 0 10.681-5.063 10.681-12.202v-5.696h-5.167v5.787c0 6.325-1.374 9.398-5.513 9.398-3.784 0-3.784-4.52-3.784-22.329h14.464v-13.29c0-.338-.01-.675-.02-1.009l-.009-.294zm-6.863 11.882h-7.575c0-2.803 0-5.261.022-7.43l.002-.262.022-1.395.004-.279.034-1.385.009-.294.052-1.346.015-.305c.024-.477.053-.93.085-1.359l.025-.326c.037-.463.081-.899.131-1.308l.053-.453c.062-.431.127-.832.204-1.199l.098-.4c.115-.474.249-.894.401-1.252l.204-.412c.293-.539.647-.925 1.082-1.162.384-.21.825-.32 1.339-.32.647 0 1.177.165 1.62.438.344.21.634.486.877.818.185.253.339.538.477.844.11.253.208.519.291.798.086.285.16.579.218.883.045.23.083.465.116.703.043.312.075.629.102.945.022.274.04.547.052.818l.028.827.011.848v12.965z"/><path fill="#fff" d="M192.52 103.349c-3.272-.182-4.135-1.542-4.135-3.532v-36.345c0-7.953-3.958-10.186-9.124-10.186-2.413 0-3.79.965-4.825 1.6l-.344-.242v-1.357h-11.022v1.571c3.272.18 4.135 1.746 4.135 3.736v41.223c0 .418-.05.802-.141 1.159l-.08.28c-.413 1.176-1.489 1.947-3.834 2.086-2.329-.136-3.533-.901-4.021-2.064l-.107-.316c-.105-.353-.167-.73-.167-1.145v-36.345c0-7.953-3.96-10.186-9.124-10.186-2.414 0-3.792.965-4.823 1.6l-.348-.242v-1.357h-11.021v1.571c3.274.18 4.134 1.746 4.134 3.736v41.223c0 1.99-.86 3.351-4.134 3.532v1.531h13.954v-1.531c-2.068-.182-2.933-1.542-2.933-3.532v-38.693c0-2.171.693-4.885 4.308-4.885 3.102 0 3.102 3.259 3.102 6.332l-.001 21.067v3.592l-.001 1.158v4.737l-.001 1.069v10.684000000000001h25.057v-1.531c-2.069-.182-2.931-1.542-2.931-3.532v-38.691c0-2.171.691-4.885 4.306-4.885 3.102 0 3.102 3.259 3.102 6.332l.003 16.082v1.744l.001 3.065v1.593l.001.615v12.254l.002 6.955h11.014v-1.53z"/><path fill="#fff" d="M111.314 54.857v-1.571h-12.742v1.571c1.892.18 3.273 1.746 3.101 3.736l-3.964 32.842h-.34l-3.276-32.842c-.17-1.99.861-3.556 2.759-3.736v-1.571h-13.78v1.571c3.614.18 4.132 1.746 4.477 3.736 0 0 6.89 45.165 7.317 48.699.425 3.538-.207 5.207-2.244 5.207-2.979 0-2.939-1.948-2.939-6.484v-1.135h-4.74v.858c0 7.141.791 9.906 7.942 9.779 4.144-.075 6.334-3.053 7.012-7.131.678-4.08 6.941-49.793 6.941-49.793.346-1.989.861-3.556 4.476-3.736z"/><rect x="34.5" y="123.702" fill="#8D734A" width="1.891" height="7.539"/><path fill="#8D734A" d="M47.647 127.557c.01.652.01.844.074 1.56-.47-.587-.556-.694-1.004-1.217l-3.696-4.197h-1.879v7.539h1.794v-4.155c-.01-.577-.01-.706-.063-1.281.417.534.577.728.971 1.186l3.738 4.251h1.87v-7.539h-1.805v3.853z"/><polygon fill="#8D734A" points="53.151,125.079 55.949,125.079 55.949,131.241 57.839,131.241 57.839,125.079 60.639,125.079 60.639,123.702 53.151,123.702"/><polygon fill="#8D734A" points="66.557,128.09 71.524,128.09 71.524,126.755 66.557,126.755 66.557,125.057 71.695,125.057 71.695,123.702 64.667,123.702 64.667,131.241 71.909,131.241 71.909,129.897 66.557,129.897"/><path fill="#8D734A" d="M95.145 127.557c.011.652.011.844.075 1.56-.47-.587-.555-.694-1.003-1.217l-3.694-4.197h-1.883v7.539h1.795v-4.155c-.012-.577-.012-.706-.064-1.281.417.534.576.728.972 1.186l3.738 4.251h1.869v-7.539h-1.805v3.853z"/><polygon fill="#8D734A" points="112.403,125.079 115.206,125.079 115.206,131.241 117.095,131.241 117.095,125.079 119.893,125.079 119.893,123.702 112.403,123.702"/><rect x="124.153" y="123.702" fill="#8D734A" width="1.888" height="7.539"/><path fill="#8D734A" d="M150.373 127.557c.011.652.011.844.075 1.56-.473-.587-.556-.694-1.004-1.217l-3.696-4.197h-1.881v7.539h1.795v-4.155c-.01-.577-.01-.706-.066-1.281.419.534.578.728.974 1.186l3.739 4.251h1.87v-7.539h-1.806v3.853z"/><g fill="#8D734A"><path d="M83.553 127.62c.536-.405.728-1.088.728-1.665 0-.438-.107-1.003-.493-1.452-.63-.729-1.409-.801-2.264-.801h-5.191v7.539h1.891v-3.032h2.147l2.018 3.032h2.224l-2.287-3.151c.298-.053.822-.16 1.227-.47zm-2.317-.748h-3.013v-1.846h2.927c.747 0 .929.18 1.069.361.127.182.148.438.148.588.001.845-.726.897-1.131.897zM104.362 123.702l-3.642 7.539h2.06l.642-1.42h3.866l.643 1.42h2.114l-3.641-7.539h-2.042zm-.331 4.783l1.144-2.51.117-.289.075-.266.064.299.128.298 1.122 2.468h-2.65zM134.782 123.467c-2.479.104-4.337 1.419-4.337 4.017 0 2.348 1.612 4.004 4.659 4.004 3.044 0 4.603-1.687 4.603-4.091 0-1.26-.501-2.094-.814-2.467-.938-1.146-2.625-1.528-4.111-1.463zm.288 6.674c-1.463 0-2.017-.78-2.2-1.035-.14-.182-.48-.662-.48-1.58 0-1.827 1.348-2.66 2.606-2.704 1.508-.052 2.777.983 2.777 2.67-.001 1.454-.942 2.649-2.703 2.649zM161.658 123.702h-2.042l-3.642 7.539h2.062l.642-1.42h3.866l.641 1.42h2.115l-3.642-7.539zm-2.372 4.783l1.142-2.51.117-.289.076-.266.064.299c.031.096.073.202.129.298l1.12 2.468h-2.648z"/></g><polygon fill="#8D734A" points="171.228,123.702 169.339,123.702 169.339,131.241 175.415,131.241 175.415,129.853 171.228,129.853"/><path fill="#8D734A" d="M177.654 131.234h.805c0 .709-.147.942-.805 1.009l.209.475c.466-.008 1-.026 1.283-.707.105-.261.115-.582.115-.861v-1.299h-1.607v1.383z"/><polygon fill="#8D734A" points="189.029,123.702 187.139,123.702 187.139,131.241 193.216,131.241 193.216,129.853 189.029,129.853"/><polygon fill="#8D734A" points="199.349,123.702 197.459,123.702 197.459,131.241 203.538,131.241 203.538,129.853 199.349,129.853"/><path fill="#8D734A" d="M213.261 128.689c-.246.458-.75 1.419-2.384 1.419-1.433 0-2.722-.98-2.722-2.625 0-1.443.971-2.63 2.68-2.63 1.464 0 2.049.896 2.254 1.218l2.071-.256c-.981-2.158-3.461-2.349-4.325-2.349-2.38 0-4.646 1.151-4.646 3.994 0 2.638 1.858 4.037 4.537 4.037 1.924 0 2.929-.631 3.539-1.185.672-.62.843-1.166.98-1.636l-1.984.013z"/></svg>