<?xml version="1.0" encoding="utf-8"?>
<!-- Generator: Adobe Illustrator 16.0.0, SVG Export Plug-In . SVG Version: 6.00 Build 0)  -->
<!DOCTYPE svg PUBLIC "-//W3C//DTD SVG 1.1//EN" "http://www.w3.org/Graphics/SVG/1.1/DTD/svg11.dtd">
<svg version="1.1" id="Layer_1" xmlns="http://www.w3.org/2000/svg" xmlns:xlink="http://www.w3.org/1999/xlink" x="0px" y="0px"
	 width="222.5px" height="144px" viewBox="0 0 222.5 144" enable-background="new 0 0 222.5 144" xml:space="preserve">
<g>
	<g>
		<path fill="#8D734A" d="M150.159,62.586c-0.005-0.107-0.003-0.2-0.003-0.282c0-1.051-0.017-2.056-0.138-2.805
			c-0.116-0.819-0.402-1.246-0.49-1.292c-0.114-0.077-0.178-0.145-0.657-0.161c-1.402,0.061-1.641,0.352-2.01,0.822
			c-0.312,0.436-0.502,1.323-0.497,2.195c0,0.017,0,0.034,0.001,0.059V83.48c1.242,0.034,2.516,0.07,3.791,0.107L150.159,62.586z"/>
		<path fill="#8D734A" d="M119.616,71.364c1.267,0.017,2.581,0.045,3.953,0.086v-0.472c-1.374,0.05-2.693,0.086-3.95,0.106
			C119.618,71.175,119.617,71.271,119.616,71.364z"/>
		<path fill="#8D734A" d="M135.861,75.584c-0.59,0.02-1.188,0.038-1.789,0.058v1.053c0.598,0.021,1.194,0.041,1.789,0.062V75.584z"
			/>
		<path fill="#8D734A" d="M135.861,84.006c-3.583,0.075-7.061,0.136-10.259,0.144c0.064,0.079,0.368,0.056,0.368,0.056
			c3.159,0,6.512,0.175,9.891,0.372V84.006z"/>
		<path fill="#8D734A" d="M190.189,71.927c0.374-0.012,0.773-0.024,1.184-0.038c0.02-0.473,0.045-0.934,0.069-1.388
			c-0.417-0.015-0.835-0.032-1.253-0.046V71.927z"/>
		<path fill="#8D734A" d="M165.394,95.866h-4.732v0.482c0.115,0,0.228-0.002,0.345-0.002c1.412,0,2.9,0.011,4.388,0.017V95.866z"/>
		<path fill="#8D734A" d="M135.861,79.038c-0.594,0.02-1.191,0.039-1.789,0.058v0.898c0.617,0.019,1.218,0.035,1.789,0.053V79.038z"
			/>
		<path fill="#8D734A" d="M135.861,87.57c-0.625,0.023-1.225,0.044-1.791,0.059v0.375c0.589,0.008,1.179,0.016,1.791,0.03V87.57z"/>
		<path fill="#8D734A" d="M119.606,74.47c0.029,0.066,0.059,0.134,0.089,0.2c0.91,0.01,2.266,0.04,3.873,0.082v-0.496
			c-2.185,0.071-3.705,0.12-3.962,0.118C119.606,74.406,119.606,74.437,119.606,74.47z"/>
		<path fill="#8D734A" d="M135.861,80.719c-0.602,0.023-1.192,0.047-1.789,0.072v0.792c0.598,0.021,1.196,0.042,1.789,0.064V80.719z
			"/>
		<path fill="#8D734A" d="M119.608,73.023c0.792,0.026,2.206,0.073,3.96,0.132V72.67c-1.491,0.044-2.85,0.074-3.96,0.085
			C119.608,72.844,119.608,72.935,119.608,73.023z"/>
		<path fill="#8D734A" d="M135.861,77.304c-0.598,0.023-1.196,0.045-1.789,0.068v0.935c0.596,0.02,1.191,0.039,1.789,0.059V77.304z"
			/>
		<path fill="#8D734A" d="M135.861,85.864c-0.612,0.016-1.211,0.029-1.789,0.042v0.338c0.532,0.014,1.135,0.029,1.789,0.047V85.864z
			"/>
		<path fill="#8D734A" d="M165.394,94.097c-0.038,0-0.072,0-0.106,0c-1.578,0-3.158,0.01-4.626,0.022v0.705
			c1.514,0.011,3.173,0.021,4.732,0.021V94.097z"/>
		<path fill="#8D734A" d="M206.043,64.358c-1.237-0.041-2.503-0.093-3.779-0.148c-0.012,0.238-0.026,0.465-0.038,0.718
			c1.276-0.05,2.553-0.098,3.82-0.135v-0.044c-0.005-0.113-0.003-0.215-0.003-0.312C206.043,64.411,206.043,64.384,206.043,64.358z"
			/>
		<path fill="#8D734A" d="M202.19,65.903c-0.007,0.221-0.018,0.429-0.021,0.658c1.325-0.052,2.625-0.097,3.877-0.131v-0.402
			c-0.105-0.002-0.204-0.003-0.312-0.006C204.561,65.994,203.377,65.953,202.19,65.903z"/>
		<path fill="#8D734A" d="M202.098,71.546c1.498-0.048,2.859-0.092,3.948-0.126v-0.359c-1.287-0.028-2.606-0.071-3.945-0.12
			C202.101,71.136,202.101,71.346,202.098,71.546z"/>
		<path fill="#8D734A" d="M206.014,62.686c-1.195-0.042-2.409-0.092-3.632-0.147c-0.022,0.238-0.042,0.483-0.06,0.74
			c1.233-0.06,2.472-0.12,3.698-0.162C206.019,62.97,206.021,62.833,206.014,62.686z"/>
		<path fill="#8D734A" d="M202.132,68.196c1.323-0.05,2.627-0.091,3.914-0.122v-0.361c-1.255-0.037-2.558-0.084-3.901-0.141
			C202.142,67.779,202.137,67.982,202.132,68.196z"/>
		<path fill="#8D734A" d="M202.11,69.876c1.383-0.046,2.72-0.092,3.936-0.131v-0.369c-1.282-0.033-2.591-0.074-3.929-0.123
			C202.114,69.457,202.112,69.666,202.11,69.876z"/>
		<path fill="#8D734A" d="M190.189,88.039c0.438-0.008,0.87-0.015,1.294-0.021c-0.007-0.136-0.017-0.271-0.024-0.408
			c-0.419-0.008-0.845-0.019-1.27-0.027V88.039z"/>
		<path fill="#8D734A" d="M150.156,83.753c-1.255,0.012-2.518,0.026-3.791,0.046v1.298c0.479,0.012,0.963,0.029,1.435,0.035
			c0.8,0.011,1.575,0.047,2.356,0.076V83.753z"/>
		<path fill="#8D734A" d="M205.872,61.004c-1.086-0.04-2.18-0.084-3.287-0.135c-0.012,0.084-0.029,0.152-0.042,0.241
			c-0.022,0.159-0.041,0.347-0.062,0.518c1.156-0.049,2.304-0.094,3.434-0.135C205.896,61.331,205.893,61.161,205.872,61.004z"/>
		<path fill="#8D734A" d="M205.489,59.324c-0.836-0.033-1.679-0.068-2.528-0.107c-0.072,0.211-0.141,0.459-0.204,0.741
			c0.973-0.042,1.935-0.08,2.89-0.114C205.597,59.663,205.546,59.48,205.489,59.324z"/>
		<path fill="#8D734A" d="M190.189,84.822c0.381-0.01,0.767-0.021,1.146-0.03c-0.007-0.199-0.015-0.396-0.019-0.599
			c-0.376-0.013-0.753-0.024-1.128-0.037V84.822z"/>
		<path fill="#8D734A" d="M190.189,78.363c0.353-0.01,0.701-0.02,1.054-0.032c0-0.332,0.002-0.65,0.005-0.976
			c-0.354-0.012-0.706-0.021-1.059-0.034V78.363z"/>
		<path fill="#8D734A" d="M202.093,72.616c0,0.182,0,0.366-0.001,0.551c1.562-0.047,2.931-0.089,3.953-0.119v-0.312
			c-1.24-0.026-2.552-0.067-3.933-0.121C202.106,72.616,202.101,72.616,202.093,72.616z"/>
		<path fill="#8D734A" d="M190.189,81.613c0.358-0.012,0.716-0.022,1.073-0.033c-0.005-0.301-0.009-0.598-0.012-0.903
			c-0.355-0.012-0.711-0.021-1.062-0.032V81.613z"/>
		<path fill="#8D734A" d="M190.189,83.214c0.368-0.011,0.735-0.021,1.103-0.031c-0.006-0.252-0.013-0.498-0.017-0.754
			c-0.363-0.013-0.724-0.024-1.086-0.037V83.214z"/>
		<path fill="#8D734A" d="M190.189,79.946c0.349-0.01,0.701-0.022,1.056-0.032c0-0.296-0.002-0.592-0.003-0.894
			c-0.352-0.011-0.703-0.021-1.053-0.032V79.946z"/>
		<path fill="#8D734A" d="M190.189,86.473c0.409-0.01,0.813-0.018,1.211-0.027c-0.009-0.19-0.018-0.381-0.027-0.575
			c-0.389-0.008-0.784-0.017-1.184-0.025V86.473z"/>
		<path fill="#8D734A" d="M190.189,76.775c0.354-0.013,0.708-0.025,1.063-0.037c0.003-0.38,0.008-0.758,0.013-1.128
			c-0.358-0.013-0.718-0.026-1.076-0.041V76.775z"/>
		<path fill="#8D734A" d="M202.091,74.757c1.362-0.036,2.677-0.061,3.952-0.075v-0.254c-1.036-0.033-2.404-0.082-3.952-0.135
			C202.091,74.449,202.091,74.599,202.091,74.757z"/>
		<path fill="#8D734A" d="M150.156,85.525c-1.164,0.025-2.444,0.055-3.791,0.087v0.968c1.268,0.034,2.539,0.067,3.789,0.101
			L150.156,85.525z"/>
		<path fill="#8D734A" d="M175.896,94.717c1.2-0.014,2.489-0.026,3.799-0.037v-0.429c-1.255-0.015-2.53-0.031-3.799-0.05V94.717z"/>
		<path fill="#8D734A" d="M146.364,96.3c1.239,0.01,2.535,0.02,3.79,0.027v-0.412c-0.099,0-0.184,0.001-0.287,0.001
			c-0.911,0-2.176,0.007-3.503,0.014V96.3z"/>
		<path fill="#8D734A" d="M165.394,99.302c-0.631-0.004-1.262-0.008-1.888-0.015c-1.001-0.008-1.936-0.012-2.845-0.015v0.353
			c0.489,0.002,0.97,0.003,1.487,0.003c1.103-0.001,2.19-0.003,3.245-0.003V99.302z"/>
		<path fill="#8D734A" d="M165.394,97.574c-1.354-0.002-2.725-0.005-4.076-0.005c-0.221,0-0.438,0-0.656,0v0.441
			c0.291,0,0.58-0.002,0.873-0.002c1.278,0,2.562-0.001,3.859-0.004V97.574z"/>
		<path fill="#8D734A" d="M131.729,56.449v-0.94c-0.213,0.008-0.438,0.016-0.66,0.024c0.211,0.268,0.42,0.537,0.603,0.825
			C131.69,56.389,131.71,56.418,131.729,56.449z"/>
		<path fill="#8D734A" d="M165.394,92.352c-0.866-0.005-1.662-0.009-2.451-0.009c-0.745,0-1.487,0.001-2.283,0.008v0.837
			c1.08,0,2.048,0.001,2.991,0.003c0.571-0.002,1.15-0.002,1.743-0.003V92.352z"/>
		<path fill="#8D734A" d="M190.189,89.685c0.469-0.004,0.941-0.009,1.409-0.014c-0.01-0.121-0.018-0.245-0.027-0.368
			c-0.458-0.008-0.921-0.017-1.382-0.025V89.685z"/>
		<path fill="#8D734A" d="M146.365,93.016c1.256,0.027,2.522,0.051,3.789,0.074v-0.624c-1.271,0.019-2.534,0.037-3.789,0.058V93.016
			z"/>
		<path fill="#8D734A" d="M165.394,90.596c-0.672-0.005-1.329-0.01-1.937-0.013c-0.797-0.01-1.73-0.013-2.705-0.013h-0.093v1.051
			c1.567-0.001,3.163-0.009,4.734-0.019V90.596z"/>
		<path fill="#8D734A" d="M147.951,94.694c0.691,0.006,1.434,0.016,2.203,0.024v-0.505c-1.283,0.013-2.551,0.025-3.789,0.04
			l-0.001,0.424C147.068,94.685,147.638,94.69,147.951,94.694z"/>
		<path fill="#8D734A" d="M175.896,96.342c1.006-0.018,2.162-0.037,3.412-0.037c0.137,0,0.255,0,0.387,0V95.94
			c-1.187-0.013-2.438-0.021-3.799-0.022V96.342z"/>
		<path fill="#8D734A" d="M191.695,67.126c-0.504-0.019-1.006-0.037-1.506-0.052v1.605c0.459-0.014,0.911-0.027,1.377-0.043
			C191.605,68.125,191.647,67.613,191.695,67.126z"/>
		<path fill="#8D734A" d="M150.154,90.764c-1.276,0.026-2.544,0.052-3.789,0.073v0.625c1.25,0.024,2.515,0.046,3.789,0.066V90.764z"
			/>
		<path fill="#8D734A" d="M150.154,89.031c-1.287,0.024-2.562,0.051-3.789,0.076v0.762c1.263,0.02,2.534,0.038,3.789,0.057V89.031z"
			/>
		<path fill="#8D734A" d="M150.154,87.262c-1.274,0.023-2.537,0.048-3.789,0.074v0.891c0.961,0.015,1.927,0.037,2.895,0.076
			c0.31,0.013,0.593,0.018,0.895,0.028V87.262z"/>
		<path fill="#8D734A" d="M165.394,88.882c-0.912-0.006-1.814-0.01-2.743-0.01c-0.62,0-1.289,0.003-1.991,0.007v1.172
			c0.695,0.004,1.329,0.006,1.872,0.006c0.992,0,1.942-0.006,2.862-0.014V88.882z"/>
		<path fill="#8D734A" d="M190.189,70.288c0.39-0.015,0.813-0.029,1.27-0.044c0.027-0.485,0.058-0.968,0.094-1.431
			c-0.459-0.018-0.91-0.036-1.363-0.053V70.288z"/>
		<path fill="#8D734A" d="M179.695,93.059v-0.523c-1.331-0.02-2.62-0.041-3.799-0.061v0.629
			C177.172,93.088,178.436,93.074,179.695,93.059z"/>
		<path fill="#8D734A" d="M165.394,87.104c-1.399-0.005-2.878-0.015-4.278-0.015c-0.156,0-0.303,0.001-0.456,0.001v1.362h2.235
			c0.832,0,1.675-0.002,2.499-0.003V87.104z"/>
		<path fill="#8D734A" d="M175.896,91.501c1.26-0.015,2.52-0.029,3.799-0.046V90.83c-1.277-0.019-2.544-0.04-3.799-0.062V91.501z"/>
		<path fill="#8D734A" d="M160.782,101.278c1.52-0.001,3.007-0.006,4.527-0.013c0.022-0.081,0.042-0.175,0.057-0.292
			c-1.566-0.003-3.111-0.005-4.668-0.008C160.718,101.097,160.746,101.193,160.782,101.278z"/>
		<path fill="#8D734A" d="M175.896,83.756v1.439c1.27-0.029,2.537-0.059,3.799-0.092l-0.001-1.28
			C178.406,83.791,177.142,83.77,175.896,83.756z"/>
		<path fill="#8D734A" d="M151.779,15.077c5.318,0,9.459,0.128,13.207,0.13c0.954-0.002,1.883-0.009,2.801-0.03
			c1.226-0.028,2.521-0.02,3.771-0.049c4.343-0.104,9.79-0.164,15.1-0.202c1.897-0.014,3.695-0.048,5.638-0.051h0.164
			c0.04,0,0.077,0,0.116-0.002c-0.104-0.081-0.214-0.158-0.32-0.237c-3.628-0.048-6.591-0.014-10.379-0.098
			c-0.93-0.021-2.302-0.019-3.723-0.05c-2.49-0.053-5.145-0.099-7.902-0.102c-6.507,0-7.673,0-14.245,0.003
			c-4.049,0-8.264,0.069-11.325,0.149c-3.943,0.104-6.755,0.046-10.047,0.086c-0.116,0.083-0.228,0.166-0.344,0.251
			c0.422-0.005,0.849-0.006,1.282-0.006C140.643,14.869,146.358,15.077,151.779,15.077z"/>
		<path fill="#8D734A" d="M190.189,91.313c0.524-0.006,1.039-0.008,1.558-0.013c-0.012-0.104-0.021-0.214-0.031-0.317
			c-0.497-0.007-1.016-0.015-1.526-0.021V91.313z"/>
		<path fill="#8D734A" d="M119.631,69.731c1.306,0.025,2.612,0.049,3.938,0.089v-0.533c-1.313,0.05-2.625,0.08-3.934,0.105
			C119.633,69.505,119.631,69.619,119.631,69.731z"/>
		<path fill="#8D734A" d="M175.896,97.94c1.226-0.002,2.568-0.006,3.8-0.01v-0.28c-1.18-0.005-2.391-0.01-3.8-0.02V97.94z"/>
		<path fill="#8D734A" d="M121.606,58.046c-0.477,0.061-0.466,0.023-0.583,0.152c0.431,0.016,0.862,0.03,1.296,0.047
			C122.149,58.116,122.01,58.069,121.606,58.046z"/>
		<path fill="#8D734A" d="M155.001,18.6c1.627,0.014,2.977,0.049,4.932,0.051c2.561-0.002,5.061,0.004,7.465,0.007
			c3.505-0.002,6.806-0.019,9.803-0.109c3.883-0.117,8.336-0.268,11.872-0.3c0.255-0.004,0.505-0.007,0.754-0.007
			c1.407,0,2.711,0.037,4.059,0.037c0.856,0,1.737-0.021,2.659-0.064c-0.093-0.086-0.181-0.177-0.277-0.263
			c-0.146-0.003-0.289-0.009-0.436-0.009c-0.659,0-1.284,0.019-1.694,0.019h-0.031c-1.845-0.003-3.254-0.1-5.284-0.1
			c-3.872,0-8.118-0.15-12.027-0.25c-1.343-0.04-2.885-0.047-4.457-0.047c-1.481,0-2.989,0.009-4.383,0.009
			c-0.926,0-1.799-0.005-2.586-0.013c-1.494-0.024-3.028-0.033-4.59-0.033c-10.025,0-21.187,0.38-30.181,0.431
			c-0.085,0.077-0.167,0.161-0.251,0.24h0.195C138.448,18.21,146.588,18.523,155.001,18.6z"/>
		<path fill="#8D734A" d="M157.318,16.928c3.173,0,6.256-0.036,8.753-0.04c2.573-0.005,5.458-0.011,7.956-0.051
			c6.863-0.105,13.985-0.298,20.63-0.3c-0.091-0.077-0.18-0.159-0.273-0.235c-9.189-0.07-19.634-0.354-30.977-0.356
			c-6.185,0.002-10.662,0.124-16.158,0.153c-5.622,0.027-10.132,0.201-14.759,0.201c-0.095,0.077-0.187,0.161-0.28,0.24
			c4.867,0.075,11.397,0.023,16.697,0.25C151.547,16.899,154.47,16.928,157.318,16.928z"/>
		<path fill="#8D734A" d="M175.896,88.308c1.138-0.024,2.424-0.051,3.799-0.078v-0.889c-1.201-0.027-2.482-0.059-3.799-0.089V88.308
			z"/>
		<path fill="#8D734A" d="M135.863,73.854c-0.589,0.02-1.187,0.038-1.791,0.057v1.154c0.607,0.019,1.206,0.036,1.791,0.057V73.854z"
			/>
		<path fill="#8D734A" d="M166.122,22.122c5.149,0,8.528-0.044,13.038-0.151c7.321-0.177,13.823-0.456,20.351-0.456
			c0.082,0,0.167,0.001,0.249,0.001c-0.069-0.078-0.135-0.157-0.204-0.235c-7.827-0.078-18.185-0.306-26.611-0.475
			c-1.977-0.042-14.72,0-17.666,0c-6.518,0-13.163,0.215-18.902,0.324c-3.092,0.06-5.924,0.127-8.453,0.152
			c-0.206-0.002-0.405-0.002-0.608,0c-0.07,0.079-0.139,0.161-0.208,0.24c7.211,0.071,13.932,0.224,21.749,0.449
			C154.002,22.122,159.229,22.122,166.122,22.122z"/>
		<path fill="#8D734A" d="M150.681,20.271c0.094,0,0.189,0.002,0.287,0.002c0.924,0,1.854,0.002,2.821,0.037
			c2.484,0.088,4.452,0.105,6.745,0.105c1.183-0.002,2.455-0.005,3.925-0.005c4.364,0,7.925-0.109,12.384-0.151
			c7.25-0.07,13.777-0.408,19.923-0.408c0.374,0,0.745,0.003,1.114,0.007c0.031-0.005,0.078-0.005,0.135-0.005
			c0.058,0,0.13,0.001,0.204,0.001c-0.075-0.076-0.148-0.156-0.224-0.232c-5.184-0.001-10.521-0.219-16.118-0.303
			c-6.728-0.105-13.874-0.184-20.866-0.184c-2.416-0.003-4.812,0.011-7.17,0.032c-8.687,0.081-17.14,0.41-24.959,0.447
			c-0.063,0.066-0.126,0.134-0.19,0.2c6.268,0.072,13.329,0.312,19.962,0.444C149.338,20.271,150.009,20.271,150.681,20.271z"/>
		<path fill="#8D734A" d="M210.717,53.096c0.438-0.008,0.85-0.014,1.218-0.016c0-0.084-0.004-0.166-0.007-0.247
			c-0.601-0.003-1.152-0.014-1.698-0.026C210.4,52.894,210.553,53.001,210.717,53.096z"/>
		<path fill="#8D734A" d="M179.695,85.635c-1.491-0.032-2.793-0.06-3.799-0.084v1.226c1.091-0.022,2.383-0.049,3.799-0.078V85.635z"
			/>
		<path fill="#8D734A" d="M135.864,68.787c-0.599,0.018-1.198,0.035-1.791,0.057v1.371c0.6,0.024,1.194,0.046,1.791,0.07
			L135.864,68.787z"/>
		<path fill="#8D734A" d="M135.863,72.22c-0.561,0.023-1.161,0.048-1.791,0.074v1.204c0.613,0.02,1.211,0.04,1.791,0.058V72.22z"/>
		<path fill="#8D734A" d="M135.863,70.468c-0.593,0.021-1.193,0.045-1.791,0.067v1.307c0.603,0.024,1.196,0.046,1.791,0.069V70.468z
			"/>
		<path fill="#8D734A" d="M204.093,58.046c-0.562,0.072-0.452,0.008-0.664,0.24c0.451-0.019,0.903-0.039,1.35-0.057
			C204.621,58.11,204.479,58.067,204.093,58.046z"/>
		<path fill="#8D734A" d="M131.729,52.19c-1.713,0.072-3.309,0.156-4.855,0.24c0.764,0.311,1.476,0.678,2.108,1.122
			c1.001,0.045,1.939,0.088,2.747,0.124V52.19z"/>
		<path fill="#8D734A" d="M131.729,53.856c-0.75,0.029-1.5,0.059-2.25,0.091c0.522,0.415,1.008,0.862,1.426,1.363
			c0.285,0.011,0.564,0.023,0.823,0.033V53.856z"/>
		<path fill="#8D734A" d="M175.896,99.602c1.249-0.013,2.537-0.024,3.8-0.028v-0.231c-1.344-0.008-2.581-0.034-3.8-0.051V99.602z"/>
		<path fill="#8D734A" d="M146.364,97.946c0.831,0.011,1.631,0.019,2.396,0.019c0.432-0.001,0.904,0.002,1.394,0.006l0.001-0.334
			c-0.453,0.004-0.896,0.005-1.322,0.005c-0.847,0-1.657-0.004-2.468-0.005V97.946z"/>
		<path fill="#8D734A" d="M179.695,89.068c-1.252-0.025-2.516-0.049-3.799-0.071v0.955c1.285-0.044,2.546-0.076,3.799-0.104V89.068z
			"/>
		<path fill="#8D734A" d="M135.861,89.327h-0.023c-0.609,0-1.183-0.002-1.768-0.003v0.345c0.549,0.007,1.147,0.016,1.791,0.028
			V89.327z"/>
		<path fill="#8D734A" d="M146.364,99.581c1.298,0.006,2.546,0.01,3.789,0.015v-0.271c-1.277,0.009-2.543,0.015-3.789,0.017V99.581z
			"/>
		<path fill="#8D734A" d="M135.861,90.972c-0.605,0.008-1.2,0.017-1.791,0.025v0.285c0.597,0.003,1.191,0.005,1.791,0.011V90.972z"
			/>
		<path fill="#8D734A" d="M135.861,92.847v-0.14c-0.308,0.007-0.623,0.013-0.923,0.017c0.095,0.073,0.321,0.049,0.418,0.118
			C135.522,92.842,135.695,92.847,135.861,92.847z"/>
		<path fill="#8D734A" d="M157.264,13.415c1.057,0.007,2.395,0.012,3.833,0.014c3.575-0.002,7.762-0.025,9.709-0.062
			c0.449-0.011,0.939-0.017,1.433-0.017c1.088,0,2.2,0.017,2.988,0.017c0.191,0,0.361,0.001,0.51,0
			c1.109-0.017,3.42-0.084,4.581-0.102c0.595-0.009,1.333-0.013,2.062-0.013c1.099,0,2.177,0.007,2.718,0.013h0.424
			c1.147,0,2.012-0.041,3.653-0.051c0.019-0.001,0.029-0.001,0.04-0.001c0.299,0,0.635,0.009,0.897,0.009h0.125
			c-0.128-0.083-0.258-0.163-0.385-0.247c-0.043,0.002-0.084,0.003-0.13,0.003h-0.093c-3.788-0.015-6.034-0.1-10.472-0.1
			c-3.167,0-6.325-0.042-9.107-0.101c-0.619-0.016-1.219-0.018-1.813-0.018c-1.196,0-2.387,0.018-3.724,0.018
			c-7.381,0-13.319,0.061-19.728,0.101c-2.816,0.015-4.721,0.105-7.306,0.105c-0.15,0-0.312-0.003-0.466-0.003
			c-0.121,0.08-0.244,0.154-0.366,0.235c3.164,0.009,4.781,0.05,8.037,0.05C148.499,13.264,153.907,13.388,157.264,13.415z"/>
		<path fill="#8D734A" d="M135.864,67.095c-0.601,0.02-1.195,0.045-1.791,0.068v1.417c0.662,0.026,1.255,0.049,1.791,0.069V67.095z"
			/>
		<path fill="#8D734A" d="M190.189,73.53c0.365-0.012,0.738-0.022,1.122-0.034c0.013-0.441,0.032-0.861,0.05-1.288
			c-0.392-0.014-0.782-0.025-1.172-0.038V73.53z"/>
		<path fill="#8D734A" d="M119.854,63.116c1.207,0.035,2.44,0.077,3.694,0.126c-0.006-0.23-0.011-0.446-0.023-0.678
			c-1.22,0.053-2.437,0.102-3.637,0.14C119.876,62.839,119.865,62.975,119.854,63.116z"/>
		<path fill="#8D734A" d="M122.964,59.216c-0.866,0.035-1.716,0.069-2.521,0.1c-0.047,0.154-0.093,0.344-0.138,0.529
			c0.921,0.032,1.894,0.067,2.895,0.104C123.13,59.678,123.049,59.434,122.964,59.216z"/>
		<path fill="#8D734A" d="M135.864,65.406c-0.603,0.015-1.209,0.044-1.813,0.066c0.011,0.357,0.02,0.714,0.022,1.071v0.419
			c0.605,0.025,1.198,0.047,1.791,0.069V65.406z"/>
		<path fill="#8D734A" d="M120.018,61.473c1.14,0.034,2.281,0.079,3.426,0.125c-0.022-0.228-0.028-0.467-0.059-0.686
			c-0.005-0.042-0.015-0.079-0.022-0.121c-1.157,0.042-2.267,0.084-3.268,0.123c-0.011,0.068-0.023,0.123-0.033,0.193l-0.294-0.04
			l0.294,0.042C120.045,61.222,120.032,61.355,120.018,61.473z"/>
		<path fill="#8D734A" d="M173.083,6.569h2.04c-0.344-0.084-0.691-0.161-1.039-0.238c-4.169-0.015-7.466-0.022-10.731-0.022
			c-3.251,0-6.489,0.007-10.557,0.021c-0.289,0.064-0.578,0.13-0.867,0.199c3.825,0.049,6.786,0.063,9.579,0.063
			C165.106,6.592,168.45,6.569,173.083,6.569z"/>
		<path fill="#8D734A" d="M190.189,75.166c0.361-0.014,0.725-0.027,1.086-0.04c0.008-0.407,0.015-0.819,0.025-1.213
			c-0.379-0.013-0.749-0.026-1.111-0.038V75.166z"/>
		<path fill="#8D734A" d="M163.002,8.282c1.061,0.006,2.05,0.007,2.996,0.007c4.397,0,7.747-0.061,12.368-0.059
			c0.339-0.001,0.688,0,1.043,0.002h1.075c-0.215-0.08-0.432-0.161-0.646-0.237c-0.136,0-0.274,0.001-0.407,0.001
			c-1.525,0-2.815-0.045-4.046-0.05c-1.596-0.011-3.211-0.016-4.841-0.016c-4.45,0.001-9.001,0.025-13.499,0.023
			c-1.647,0-3.287-0.001-4.911-0.007c-0.103-0.003-0.2-0.004-0.299-0.004c-1.472,0-2.739,0.054-4.449,0.054
			c-0.114-0.001-0.233-0.001-0.353-0.001c-0.217,0.077-0.433,0.158-0.646,0.239c0.046-0.002,0.085-0.002,0.11-0.002
			C152.858,8.274,156.989,8.244,163.002,8.282z"/>
		<path fill="#8D734A" d="M121.576,51.476c-0.002,0,0,0-0.007,0c0.059-0.002,0.113,0,0.155-0.002c0.933,0,1.801,0.096,2.632,0.243
			c2.735,0.109,5.447,0.224,7.374,0.304v-0.542h14.635v0.597c0.896-0.341,1.992-0.599,3.29-0.599h0.034
			c0.027-0.006,0.039-0.002,0.044,0h0.004c0.004,0,0.004,0.002,0.006,0c2.812,0,5.617,0.612,7.729,2.607
			c2.104,2,3.187,5.114,3.187,9.34c0,0,0,0.017,0,0.047l0.001,23.434c0.509,0.003,1.014,0.012,1.521,0.012
			c1.089,0,2.162-0.011,3.214-0.027l0.002-28.295c-0.008-0.764-0.159-1.106-0.351-1.309c-0.187-0.2-0.693-0.542-2.075-0.624
			l-1.71-0.092v-5.09h14.637v0.598c0.894-0.342,1.989-0.6,3.287-0.6h0.034c0.026-0.006,0.04-0.002,0.047,0
			c0.007,0,0.007,0.002,0.01,0c2.812,0,5.612,0.612,7.729,2.607c2.106,2.005,3.186,5.122,3.186,9.353c0,0,0,0.004,0,0.034v3.582
			c0.497-0.017,1.009-0.036,1.522-0.055c0.054-0.535,0.114-1.054,0.18-1.558c-0.332-0.012-0.67-0.029-1.001-0.04
			c0.333-0.013,0.675-0.028,1.01-0.042c0.073-0.546,0.154-1.072,0.239-1.584c-0.364-0.013-0.734-0.028-1.098-0.038
			c0.351-0.007,0.735-0.017,1.108-0.025c0.093-0.555,0.196-1.088,0.309-1.603c-0.255-0.009-0.512-0.02-0.768-0.027
			c0.258-0.009,0.521-0.02,0.777-0.03c0.013-0.05,0.021-0.106,0.031-0.157c0.112-0.5,0.234-0.981,0.367-1.448
			c-0.207-0.007-0.412-0.018-0.62-0.025c0.209-0.007,0.423-0.017,0.633-0.025c0.16-0.56,0.341-1.088,0.534-1.6
			c-0.343-0.012-0.684-0.026-1.026-0.038c0.348-0.012,0.706-0.027,1.059-0.04c0.211-0.55,0.444-1.066,0.697-1.558
			c-0.572-0.021-1.137-0.049-1.71-0.067c0.577-0.018,1.172-0.036,1.772-0.055c0.282-0.536,0.582-1.049,0.921-1.512
			c-0.766-0.034-1.528-0.066-2.281-0.098c0.169-0.005,1.086-0.047,2.446-0.106c0.396-0.515,0.83-0.98,1.307-1.396
			c-1.154-0.062-2.304-0.121-3.442-0.168c0.202-0.007,1.724-0.077,3.856-0.17c0.239-0.188,0.482-0.375,0.744-0.539
			c0.407-0.253,0.834-0.461,1.272-0.648c-1.98-0.107-3.944-0.218-5.896-0.301c2.592-0.082,5.363-0.223,8.146-0.356
			c0.889-0.167,1.81-0.265,2.782-0.265c-0.002,0,0,0-0.004,0c0.059-0.002,0.112,0,0.158-0.002c0.497,0,0.971,0.033,1.438,0.075
			c2.104-0.082,4.168-0.14,6.104-0.14h0.135c-0.002-0.065-0.002-0.133-0.004-0.198c-3.375-0.068-16.683-0.674-19.626-0.755
			c5.973-0.214,13.337-0.619,18.854-0.703c0.099-0.003,0.368-0.005,0.615-0.009h0.047c-0.005-0.077-0.011-0.151-0.018-0.229
			c-0.013,0-0.021,0-0.034-0.002c-6.01-0.037-12.731-0.513-19.283-0.72c6.316-0.23,13.151-0.691,19.077-0.703h0.103
			c-0.01-0.082-0.021-0.161-0.032-0.242c-5.977-0.028-13.127-0.521-19.71-0.727c0.848-0.021,14.1-0.651,19.531-0.687
			c-0.014-0.084-0.022-0.166-0.036-0.247c-6.267-0.032-13.098-0.517-19.765-0.722c2.725-0.1,15.716-0.649,19.503-0.742
			c-0.012-0.066-0.022-0.131-0.034-0.196c-6.081-0.026-13.137-0.512-19.983-0.72c6.359-0.223,13.508-0.685,19.688-0.699
			c-0.017-0.08-0.036-0.161-0.055-0.241c-1.874-0.066-15.429-0.549-20.103-0.714c0.539-0.012,19.696-0.709,19.771-0.708
			c-0.022-0.08-0.047-0.158-0.068-0.238c-6.39-0.031-13.533-0.518-20.639-0.722c0.583-0.009,20.099-0.702,20.233-0.701
			c-0.021-0.077-0.041-0.156-0.065-0.233c-0.211-0.002-18.087-0.64-21.059-0.725c6.652-0.222,13.759-0.674,20.595-0.701
			c-0.026-0.08-0.054-0.159-0.082-0.239c-6.324-0.038-14.277-0.521-21.572-0.726c2.992-0.104,21.033-0.697,21.063-0.697
			c-0.031-0.08-0.062-0.158-0.094-0.236c-6.493-0.035-14.448-0.522-22.109-0.725c7.283-0.227,14.47-0.672,21.446-0.7
			c0.029-0.004,0.063-0.004,0.1-0.006c-0.033-0.077-0.07-0.153-0.103-0.23h-0.147c-3.812-0.065-19.879-0.654-22.906-0.718
			c7.591-0.223,15.298-0.679,22.304-0.707h0.104c-0.035-0.08-0.07-0.161-0.107-0.24c-7.009-0.046-15.557-0.531-23.663-0.724
			c7.517-0.211,22.951-0.697,22.951-0.697c-0.041-0.078-0.167-0.231-0.187-0.231c-0.059,0-21.925-0.649-25.309-0.738
			c8.47-0.261,16.421-0.569,24.6-0.689c0.001,0,0.001,0,0.001,0c-0.045-0.082-0.092-0.161-0.139-0.24
			c-7.765-0.097-17.343-0.534-26.176-0.722c1.074-0.036,24.856-0.709,25.337-0.7c-0.051-0.082-0.104-0.159-0.152-0.24
			c-8.124-0.035-18.235-0.607-27.938-0.735c8.97-0.11,27.024-0.686,27.024-0.686c-0.056-0.082-0.115-0.158-0.17-0.238
			c-0.028,0-26.402-0.703-29.85-0.705c-1.31,0,18.458-0.672,28.838-0.717c-0.058-0.079-0.114-0.162-0.173-0.24
			c-2.854-0.022-29.868-0.767-29.562-0.767c8.972,0,28.001-0.66,28.444-0.656c-0.064-0.079-0.124-0.16-0.187-0.238
			c-2.749-0.004-24.835-0.504-32.132-0.558c-0.983-0.012-11.088-0.002-11.22-0.002c-9.812,0-22.188,0.505-31.743,0.56
			c-0.065,0.079-0.124,0.162-0.19,0.241c3.166,0.077,31.444,0.716,31.444,0.716c-10.534,0-22.213,0.587-32.558,0.702
			c-0.06,0.082-0.116,0.167-0.177,0.249c7.874,0.085,27.372,0.687,30.249,0.694c-1.108,0.01-22.743,0.686-31.253,0.717
			c-0.058,0.083-0.119,0.162-0.175,0.245c9.622,0.03,28.144,0.712,27.798,0.717c-1.186,0.018-21.379,0.627-28.708,0.696
			c-0.044,0.073-0.09,0.144-0.137,0.216c1.042,0.06,24.803,0.748,24.412,0.748c-5.544,0-22.793,0.664-25.284,0.727
			c-0.04,0.07-0.081,0.14-0.121,0.21c7.246,0,14.982,0.534,22.736,0.658c0.728,0.011-19.003,0.772-23.304,0.772h-0.208
			c-0.042,0.082-0.084,0.163-0.125,0.244c2.311,0.047,17.894,0.55,23.147,0.692c-3.292,0.067-19.555,0.653-23.853,0.716
			c-0.038,0.082-0.074,0.166-0.113,0.25c6.797,0.056,14.683,0.44,21.942,0.694c-7.6,0.153-15.813,0.681-22.579,0.714
			c-0.036,0.084-0.076,0.168-0.112,0.251c7.46,0.07,14.275,0.45,21.423,0.706c-7.688,0.154-15.718,0.652-21.997,0.754
			c-0.024,0.064-0.053,0.128-0.078,0.195c3.613,0.001,18.323,0.591,21.279,0.708c-5.392,0.098-19.957,0.668-21.784,0.701
			c-0.028,0.084-0.057,0.168-0.086,0.252h0.079c1.992,0.056,15.454,0.542,20.147,0.701c-7.068,0.202-14.545,0.679-20.687,0.716
			c-0.024,0.082-0.047,0.163-0.071,0.245c6.01,0.016,13.548,0.478,20.025,0.703c-7.02,0.208-14.688,0.64-20.439,0.759
			c-0.018,0.066-0.038,0.131-0.056,0.196c0.051,0,0.098-0.002,0.147-0.002c3.478,0,16.949,0.586,19.704,0.706
			c-6.876,0.146-13.94,0.696-20.183,0.719c-0.019,0.082-0.038,0.163-0.055,0.244c6.117,0.023,12.978,0.469,19.28,0.698
			c-6.662,0.208-13.454,0.672-19.574,0.716c-0.018,0.082-0.03,0.163-0.044,0.247c6.009,0.023,13.047,0.473,18.994,0.691
			c-4.807,0.156-18.724,0.646-19.239,0.675c-0.015,0.101-0.03,0.2-0.045,0.3c6.341,0.052,12.885,0.438,19.008,0.704
			c-6.573,0.161-13.685,0.696-19.187,0.713c-0.01,0.079-0.021,0.158-0.032,0.239c5.963,0.026,12.59,0.461,18.768,0.696
			c-6.348,0.212-13.483,0.691-18.905,0.72c-0.007,0.082-0.012,0.165-0.018,0.246c5.938,0.028,12.723,0.473,18.719,0.697
			c-2.802,0.095-15.64,0.688-18.829,0.714c-0.002,0.082-0.002,0.163-0.005,0.247c1.02,0.004,2.89,0.06,5.072,0.137
			C120.55,51.506,121.054,51.476,121.576,51.476z"/>
		<path fill="#8D734A" d="M135.864,58.593c-0.008-0.764-0.159-1.108-0.349-1.309c-0.187-0.2-0.695-0.542-2.077-0.624l-1.633-0.091
			c0.097,0.158,0.175,0.324,0.264,0.485c0.36,0.014,0.686,0.026,0.923,0.034c-0.302,0.01-0.59,0.022-0.887,0.033
			c0.281,0.515,0.532,1.044,0.742,1.592c0.34,0.014,0.686,0.029,1.022,0.042c-0.245,0.009-0.595,0.023-0.988,0.04
			c0.192,0.511,0.351,1.036,0.49,1.569c0.534,0.022,0.983,0.042,1.287,0.054c-0.39,0.009-0.815,0.021-1.266,0.033
			c0.133,0.521,0.241,1.05,0.331,1.586c0.347,0.013,0.708,0.031,1.052,0.043c-0.344,0.011-0.693,0.029-1.039,0.041
			c0.084,0.518,0.155,1.039,0.203,1.566c0.454,0.017,0.913,0.037,1.354,0.053c-0.445,0.014-0.895,0.033-1.344,0.048
			c0.046,0.507,0.079,1.016,0.097,1.525c0.756,0.031,1.373,0.055,1.816,0.072V58.593z"/>
		<path fill="#8D734A" d="M119.692,66.402c1.274,0.028,2.571,0.066,3.876,0.114v-0.571c-1.311,0.054-2.595,0.083-3.865,0.104
			C119.7,66.168,119.697,66.281,119.692,66.402z"/>
		<path fill="#8D734A" d="M119.654,68.082c1.138,0.032,2.474,0.074,3.915,0.12v-0.602c-1.33,0.053-2.629,0.089-3.907,0.119
			C119.659,67.842,119.655,67.96,119.654,68.082z"/>
		<path fill="#8D734A" d="M155.504,11.655c3.402,0.001,4.919,0.025,7.098,0.048c0.388,0.003,0.749,0.007,1.096,0.007
			c1.877,0,3.267-0.054,5.798-0.056c0.932-0.005,2.08-0.007,3.124-0.007c0.63,0,1.222,0.002,1.706,0.007
			c0.112,0,0.224,0.001,0.339,0.001c1.211,0,2.379-0.052,3.841-0.052c3.221,0,5.053-0.04,8.004-0.05h0.955
			c0.024-0.001,0.034-0.002,0.057-0.002c-0.136-0.079-0.273-0.159-0.412-0.236c-3.846-0.015-7.102-0.045-11.121-0.099
			c-0.274-0.007-0.541-0.009-0.804-0.009c-0.728,0-1.414,0.014-2.102,0.014c-0.256,0-0.511-0.002-0.769-0.005
			c-2.551-0.044-5.4-0.051-9.31-0.051c-2.453,0-4.217-0.007-5.895-0.009c-2.076,0-4.028,0.013-6.991,0.06
			c-3.64,0.056-6.854,0.082-10.35,0.096c-0.142,0.079-0.282,0.162-0.422,0.242c2.867,0.005,4.734,0.033,7.449,0.05
			C150.316,11.623,152.118,11.655,155.504,11.655z"/>
		<path fill="#8D734A" d="M119.774,64.383c-0.006,0.136-0.016,0.263-0.021,0.404c1.152,0.036,2.448,0.08,3.815,0.128v-0.162
			c-0.004-0.08,0-0.149,0-0.201c0-0.098-0.004-0.209-0.004-0.309C122.276,64.298,121.013,64.345,119.774,64.383z"/>
		<path fill="#8D734A" d="M179.688,62.242c0.002-1.028-0.021-2.007-0.138-2.743c-0.117-0.822-0.401-1.246-0.492-1.292
			c-0.113-0.077-0.178-0.145-0.657-0.161c-1.4,0.061-1.64,0.352-2.008,0.822c-0.311,0.436-0.499,1.323-0.497,2.195
			c0,0.017,0.001,0.034,0.001,0.059l-0.001,22.429c1.268-0.012,2.534-0.034,3.798-0.059l-0.004-20.918
			C179.688,62.458,179.69,62.349,179.688,62.242z"/>
		<path fill="#8D734A" d="M135.861,82.399c-3.465,0.213-6.809,0.452-11.185,0.471c0.061,0.082,0.276,0.082,0.428,0.082
			c3.265,0,7.043,0.139,10.757,0.261V82.399z"/>
		<path fill="#8D734A" d="M164.568,9.964h0.352c1.078,0,2.245-0.007,3.67-0.021c3.027-0.033,6.633-0.036,9.01-0.05
			c0.461-0.005,0.919-0.007,1.385-0.007c0.978,0,1.993,0.007,3.175,0.007h0.624c0.152-0.001,0.547-0.003,0.901-0.007
			c0.176-0.001,0.344-0.002,0.469-0.006c0.062-0.001,0.112-0.002,0.149-0.005c0.018-0.002,0.031-0.002,0.044-0.002
			c-0.155-0.075-0.314-0.14-0.471-0.214c-0.046,0-0.083-0.001-0.137-0.002c-6.887-0.016-11.721-0.102-20.885-0.104
			c-4.776,0.002-7.311,0.064-10.875,0.104c-0.433,0.002-0.853,0.002-1.265,0.004c-1.91,0-3.638-0.04-5.548-0.04
			c-0.676,0-1.392,0.007-2.135,0.022c-0.185,0.085-0.374,0.164-0.556,0.25c5.104,0.016,7.705,0.049,14.185,0.049
			C160.202,9.943,162.214,9.964,164.568,9.964z"/>
		<path fill="#8D734A" d="M190.189,92.955c0.563-0.005,1.149-0.01,1.701-0.014c0.016-0.012,0.032-0.022,0.046-0.033
			c-0.008-0.074-0.02-0.143-0.029-0.216c-0.473-0.001-1.052-0.005-1.718-0.012V92.955z"/>
	</g>
	<path fill="#FFFFFF" d="M44.443,103.349c-2.067-0.182-2.925-1.542-2.925-3.532V61.124c0-2.171,0.685-4.885,4.305-4.885
		c3.101,0,3.101,3.259,3.101,6.332l-0.006,42.309h11.028v-1.531c-3.275-0.182-4.136-1.542-4.136-3.532V63.472
		c0-7.953-3.958-9.944-9.128-9.944c-1.204,0-2.065,0.182-2.925,0.452c-0.688,0.271-1.38,0.545-1.894,0.906h-0.344V37.074H30.496
		v1.574c3.27,0.179,4.132,1.499,4.132,3.49v57.679c0,1.99-0.862,3.351-4.132,3.532v1.531h13.947V103.349z"/>
	<path fill="#FFFFFF" d="M23.837,38.882c-0.689,0-1.722-0.542-2.754-0.992c-1.033-0.454-2.068-0.816-3.787-0.816
		c-12.229,0-13.608,16.636-13.608,32.729c0,18.444,1.379,35.077,13.95,35.077c8.095,0,10.504-4.519,10.504-14.646v-3.253h-5.51
		v5.969c0,6.866-2.41,9.035-4.994,9.035c-2.581,0-4.994-3.703-4.994-32.183c0-26.126,2.413-29.835,4.994-29.835
		c2.584,0,4.994,3.254,4.994,10.758v7.697h5.51V37.074h-3.098C24.871,38.159,24.353,38.882,23.837,38.882z"/>
	<path fill="#FFFFFF" d="M71.68,53.286c-8.607,0-11.021,6.392-11.021,25.376c0,20.07,2.414,26.218,11.021,26.218
		c8.614,0,10.681-5.063,10.681-12.202v-5.696h-5.169v5.787c0,6.325-1.374,9.398-5.511,9.398c-3.787,0-3.787-4.52-3.787-22.329
		h14.468v-13.29C82.361,59.678,80.294,53.286,71.68,53.286z M75.472,77.125h-7.579c0-15.551,0-20.886,3.787-20.886
		c3.792,0,3.792,5.335,3.792,8.5V77.125z"/>
	<path fill="#FFFFFF" d="M214.749,79.838v-13.29c0-3.93-0.686-7.697-2.877-10.208c-0.058-0.066-0.124-0.127-0.184-0.192
		c-0.483-0.521-1.039-0.981-1.672-1.374c-0.18-0.111-0.355-0.225-0.549-0.325c-1.395-0.725-3.128-1.142-5.274-1.158
		c-0.042,0-0.079-0.005-0.121-0.005c-0.468,0-0.914,0.022-1.347,0.061c-1.142,0.103-2.159,0.345-3.063,0.743
		c-0.656,0.288-1.253,0.659-1.795,1.119c-0.156,0.133-0.308,0.272-0.453,0.419c-0.392,0.391-0.752,0.834-1.083,1.336
		c-0.059,0.088-0.114,0.181-0.169,0.273c-0.264,0.427-0.508,0.893-0.73,1.399c-0.034,0.077-0.071,0.15-0.105,0.229
		c-0.189,0.451-0.365,0.938-0.529,1.451c-0.02,0.067-0.042,0.134-0.063,0.202c-0.14,0.46-0.27,0.949-0.39,1.459
		c-0.018,0.066-0.033,0.128-0.049,0.195c-0.108,0.47-0.207,0.965-0.3,1.477c-0.01,0.062-0.021,0.126-0.031,0.19
		c-0.081,0.463-0.157,0.944-0.228,1.444c-0.011,0.077-0.022,0.15-0.032,0.229c-0.062,0.455-0.115,0.928-0.167,1.41
		c-0.01,0.089-0.017,0.183-0.026,0.272c-0.044,0.444-0.086,0.901-0.125,1.371c-0.008,0.107-0.018,0.213-0.025,0.323
		c-0.032,0.42-0.062,0.852-0.089,1.292c-0.009,0.132-0.018,0.258-0.024,0.392c-0.023,0.409-0.043,0.832-0.062,1.26
		c-0.007,0.145-0.013,0.289-0.02,0.436c-0.015,0.384-0.028,0.774-0.041,1.172c-0.006,0.177-0.011,0.355-0.016,0.536
		c-0.009,0.355-0.018,0.715-0.024,1.083c-0.005,0.203-0.008,0.414-0.01,0.622c-0.006,0.327-0.01,0.657-0.014,0.993
		c-0.002,0.242-0.004,0.489-0.006,0.735c0,0.286-0.003,0.575-0.003,0.867c0,0.13-0.002,0.254-0.002,0.385
		c0,0.142,0.002,0.275,0.002,0.416c0,0.264,0.003,0.522,0.003,0.782c0.002,0.292,0.002,0.586,0.004,0.87
		c0.004,0.27,0.008,0.53,0.012,0.794c0.004,0.323,0.009,0.648,0.014,0.963c0.005,0.219,0.01,0.43,0.015,0.644
		c0.009,0.378,0.017,0.753,0.028,1.119c0.006,0.169,0.011,0.334,0.017,0.502c0.014,0.39,0.027,0.777,0.043,1.152
		c0.007,0.17,0.015,0.335,0.023,0.503c0.02,0.422,0.042,0.835,0.065,1.239c0.007,0.116,0.015,0.231,0.021,0.346
		c0.027,0.458,0.06,0.903,0.094,1.338c0.008,0.107,0.017,0.217,0.023,0.322c0.04,0.465,0.081,0.916,0.125,1.357
		c0.01,0.09,0.019,0.185,0.028,0.273c1.087,10.151,4.058,13.597,10.505,13.597c8.605,0,10.677-5.063,10.677-12.202v-5.696h-5.169
		v5.787c0,6.325-1.378,9.398-5.508,9.398c-3.423,0-3.755-3.689-3.787-17.525c-0.001-0.086-0.001-0.17-0.001-0.255
		c0-0.453-0.001-0.916-0.003-1.392v-0.307c0-0.444,0-0.895,0-1.357v-1.493H214.749z M200.281,76.444c0-0.169,0-0.328,0-0.495v-1.14
		c0-0.191,0-0.393,0.002-0.581c0.001-0.349,0.001-0.669,0.002-1.007c0.002-0.227,0.002-0.456,0.002-0.678
		c0.002-0.312,0.002-0.637,0.003-0.939c0.001-0.254,0.004-0.485,0.006-0.733c0.002-0.315,0.004-0.631,0.008-0.934
		c0.002-0.252,0.004-0.509,0.008-0.754c0.002-0.316,0.01-0.61,0.014-0.913c0.004-0.256,0.008-0.527,0.013-0.773
		c0.006-0.3,0.015-0.579,0.022-0.864c0.007-0.274,0.015-0.548,0.023-0.81c0.011-0.282,0.021-0.558,0.032-0.826
		c0.013-0.298,0.027-0.586,0.044-0.868c0.014-0.261,0.03-0.519,0.047-0.765c0.021-0.314,0.044-0.618,0.07-0.908
		c0.023-0.261,0.05-0.508,0.077-0.751c0.035-0.317,0.071-0.634,0.112-0.919c0.039-0.267,0.086-0.506,0.132-0.747
		c0.062-0.327,0.133-0.628,0.209-0.909c0.074-0.273,0.154-0.524,0.243-0.754c0.127-0.335,0.27-0.633,0.429-0.884
		c0.221-0.347,0.477-0.613,0.768-0.81c0.426-0.29,0.923-0.442,1.525-0.442c0.533,0,0.984,0.116,1.378,0.306
		c0.521,0.253,0.932,0.651,1.25,1.153c0.091,0.143,0.177,0.289,0.255,0.446c0.186,0.381,0.334,0.802,0.449,1.248
		c0.033,0.129,0.063,0.26,0.092,0.392c0.091,0.413,0.157,0.841,0.209,1.276c0.015,0.124,0.029,0.246,0.042,0.371
		c0.04,0.438,0.065,0.878,0.083,1.308c0.004,0.115,0.006,0.228,0.01,0.343c0.012,0.463,0.015,0.909,0.016,1.326
		c0.001,0.11,0.001,0.224,0.001,0.331v12.385h-7.575V76.444z"/>
	<path fill="#FFFFFF" d="M132.24,65.243c-0.02-0.467-0.055-0.928-0.096-1.384c-0.007-0.083-0.02-0.164-0.03-0.246
		c-0.049-0.481-0.116-0.954-0.198-1.419c-0.013-0.077-0.025-0.155-0.04-0.232c-0.093-0.497-0.201-0.984-0.334-1.456
		c-0.021-0.075-0.044-0.148-0.068-0.224c-0.145-0.487-0.321-0.954-0.517-1.406c-0.036-0.083-0.07-0.167-0.108-0.248
		c-0.232-0.502-0.494-0.981-0.795-1.428c-0.055-0.082-0.118-0.158-0.175-0.238c-0.352-0.485-0.742-0.94-1.192-1.344
		c-0.167-0.149-0.348-0.285-0.529-0.421c-0.581-0.439-1.24-0.81-1.981-1.107c-1.273-0.509-2.78-0.805-4.589-0.805
		c-2.048,0-3.744,0.367-5.142,1.175c-0.16,0.093-0.317,0.193-0.471,0.297c-4.103,2.813-5.408,9.958-5.408,23.903
		c0,20.07,2.413,26.218,11.021,26.218c8.614,0,10.681-5.063,10.681-12.202v-5.696h-5.167v5.787c0,6.325-1.374,9.398-5.513,9.398
		c-3.784,0-3.784-4.52-3.784-22.329h14.464v-13.29c0-0.338-0.01-0.675-0.02-1.009C132.242,65.44,132.243,65.34,132.24,65.243z
		 M125.377,77.125h-7.575c0-2.803,0-5.261,0.022-7.43c0-0.083,0-0.179,0.002-0.262c0.004-0.488,0.015-0.936,0.022-1.395
		c0.002-0.091,0.002-0.188,0.004-0.279c0.01-0.48,0.022-0.938,0.034-1.385c0.003-0.098,0.005-0.198,0.009-0.294
		c0.016-0.468,0.033-0.917,0.052-1.346c0.005-0.103,0.011-0.205,0.015-0.305c0.024-0.477,0.053-0.93,0.085-1.359
		c0.008-0.11,0.016-0.218,0.025-0.326c0.037-0.463,0.081-0.899,0.131-1.308c0.019-0.149,0.034-0.311,0.053-0.453
		c0.062-0.431,0.127-0.832,0.204-1.199c0.03-0.143,0.066-0.267,0.098-0.4c0.115-0.474,0.249-0.894,0.401-1.252
		c0.064-0.147,0.133-0.282,0.204-0.412c0.293-0.539,0.647-0.925,1.082-1.162c0.384-0.21,0.825-0.32,1.339-0.32
		c0.647,0,1.177,0.165,1.62,0.438c0.344,0.21,0.634,0.486,0.877,0.818c0.185,0.253,0.339,0.538,0.477,0.844
		c0.11,0.253,0.208,0.519,0.291,0.798c0.086,0.285,0.16,0.579,0.218,0.883c0.045,0.23,0.083,0.465,0.116,0.703
		c0.043,0.312,0.075,0.629,0.102,0.945c0.022,0.274,0.04,0.547,0.052,0.818c0.013,0.281,0.022,0.558,0.028,0.827
		c0.006,0.292,0.008,0.576,0.011,0.848c0,0.198,0,0.391,0,0.576V77.125z"/>
	<path fill="#FFFFFF" d="M192.52,103.349c-3.272-0.182-4.135-1.542-4.135-3.532V63.472c0-7.953-3.958-10.186-9.124-10.186
		c-2.413,0-3.79,0.965-4.825,1.6l-0.344-0.242v-1.357h-11.022v1.571c3.272,0.18,4.135,1.746,4.135,3.736v41.223
		c0,0.418-0.05,0.802-0.141,1.159c-0.023,0.095-0.048,0.189-0.08,0.28c-0.413,1.176-1.489,1.947-3.834,2.086
		c-2.329-0.136-3.533-0.901-4.021-2.064c-0.043-0.102-0.076-0.209-0.107-0.316c-0.105-0.353-0.167-0.73-0.167-1.145V63.472
		c0-7.953-3.96-10.186-9.124-10.186c-2.414,0-3.792,0.965-4.823,1.6l-0.348-0.242v-1.357h-11.021v1.571
		c3.274,0.18,4.134,1.746,4.134,3.736v41.223c0,1.99-0.86,3.351-4.134,3.532v1.531h13.954v-1.531
		c-2.068-0.182-2.933-1.542-2.933-3.532V61.124c0-2.171,0.693-4.885,4.308-4.885c3.102,0,3.102,3.259,3.102,6.332l-0.001,21.067
		v3.592l-0.001,1.158v4.737l-0.001,1.069v5.408v5.276h25.057v-1.531c-2.069-0.182-2.931-1.542-2.931-3.532V61.124
		c0-2.171,0.691-4.885,4.306-4.885c3.102,0,3.102,3.259,3.102,6.332l0.003,16.082v1.744l0.001,3.065v1.593l0.001,0.615v4.135v1.05
		v2.183v1.235v3.651l0.002,6.955h11.014V103.349z"/>
	<path fill="#FFFFFF" d="M111.314,54.857v-1.571H98.572v1.571c1.892,0.18,3.273,1.746,3.101,3.736l-3.964,32.842h-0.34
		l-3.276-32.842c-0.17-1.99,0.861-3.556,2.759-3.736v-1.571H83.072v1.571c3.614,0.18,4.132,1.746,4.477,3.736
		c0,0,6.89,45.165,7.317,48.699c0.425,3.538-0.207,5.207-2.244,5.207c-2.979,0-2.939-1.948-2.939-6.484v-1.135h-4.74v0.858
		c0,7.141,0.791,9.906,7.942,9.779c4.144-0.075,6.334-3.053,7.012-7.131c0.678-4.08,6.941-49.793,6.941-49.793
		C107.184,56.604,107.699,55.037,111.314,54.857z"/>
	<rect x="34.5" y="123.702" fill="#8D734A" width="1.891" height="7.539"/>
	<path fill="#8D734A" d="M47.647,127.557c0.01,0.652,0.01,0.844,0.074,1.56c-0.47-0.587-0.556-0.694-1.004-1.217l-3.696-4.197
		h-1.879v7.539h1.794v-4.155c-0.01-0.577-0.01-0.706-0.063-1.281c0.417,0.534,0.577,0.728,0.971,1.186l3.738,4.251h1.87v-7.539
		h-1.805V127.557z"/>
	<polygon fill="#8D734A" points="53.151,125.079 55.949,125.079 55.949,131.241 57.839,131.241 57.839,125.079 60.639,125.079 
		60.639,123.702 53.151,123.702 	"/>
	<polygon fill="#8D734A" points="66.557,128.09 71.524,128.09 71.524,126.755 66.557,126.755 66.557,125.057 71.695,125.057 
		71.695,123.702 64.667,123.702 64.667,131.241 71.909,131.241 71.909,129.897 66.557,129.897 	"/>
	<path fill="#8D734A" d="M95.145,127.557c0.011,0.652,0.011,0.844,0.075,1.56c-0.47-0.587-0.555-0.694-1.003-1.217l-3.694-4.197
		H88.64v7.539h1.795v-4.155c-0.012-0.577-0.012-0.706-0.064-1.281c0.417,0.534,0.576,0.728,0.972,1.186l3.738,4.251h1.869v-7.539
		h-1.805V127.557z"/>
	<polygon fill="#8D734A" points="112.403,125.079 115.206,125.079 115.206,131.241 117.095,131.241 117.095,125.079 
		119.893,125.079 119.893,123.702 112.403,123.702 	"/>
	<rect x="124.153" y="123.702" fill="#8D734A" width="1.888" height="7.539"/>
	<path fill="#8D734A" d="M150.373,127.557c0.011,0.652,0.011,0.844,0.075,1.56c-0.473-0.587-0.556-0.694-1.004-1.217l-3.696-4.197
		h-1.881v7.539h1.795v-4.155c-0.01-0.577-0.01-0.706-0.066-1.281c0.419,0.534,0.578,0.728,0.974,1.186l3.739,4.251h1.87v-7.539
		h-1.806V127.557z"/>
	<g>
		<path fill="#8D734A" d="M83.553,127.62c0.536-0.405,0.728-1.088,0.728-1.665c0-0.438-0.107-1.003-0.493-1.452
			c-0.63-0.729-1.409-0.801-2.264-0.801h-5.191v7.539h1.891v-3.032h2.147l2.018,3.032h2.224l-2.287-3.151
			C82.624,128.037,83.148,127.93,83.553,127.62z M81.236,126.872h-3.013v-1.846h2.927c0.747,0,0.929,0.18,1.069,0.361
			c0.127,0.182,0.148,0.438,0.148,0.588C82.368,126.82,81.641,126.872,81.236,126.872z"/>
		<path fill="#8D734A" d="M104.362,123.702l-3.642,7.539h2.06l0.642-1.42h3.866l0.643,1.42h2.114l-3.641-7.539H104.362z
			 M104.031,128.485l1.144-2.51c0.042-0.095,0.074-0.193,0.117-0.289c0.022-0.085,0.044-0.17,0.075-0.266
			c0.01,0.106,0.032,0.202,0.064,0.299c0.032,0.096,0.074,0.202,0.128,0.298l1.122,2.468H104.031z"/>
		<path fill="#8D734A" d="M134.782,123.467c-2.479,0.104-4.337,1.419-4.337,4.017c0,2.348,1.612,4.004,4.659,4.004
			c3.044,0,4.603-1.687,4.603-4.091c0-1.26-0.501-2.094-0.814-2.467C137.955,123.784,136.268,123.402,134.782,123.467z
			 M135.07,130.141c-1.463,0-2.017-0.78-2.2-1.035c-0.14-0.182-0.48-0.662-0.48-1.58c0-1.827,1.348-2.66,2.606-2.704
			c1.508-0.052,2.777,0.983,2.777,2.67C137.772,128.946,136.831,130.141,135.07,130.141z"/>
		<path fill="#8D734A" d="M161.658,123.702h-2.042l-3.642,7.539h2.062l0.642-1.42h3.866l0.641,1.42h2.115L161.658,123.702z
			 M159.286,128.485l1.142-2.51c0.045-0.095,0.076-0.193,0.117-0.289c0.022-0.085,0.044-0.17,0.076-0.266
			c0.01,0.106,0.032,0.202,0.064,0.299c0.031,0.096,0.073,0.202,0.129,0.298l1.12,2.468H159.286z"/>
	</g>
	<polygon fill="#8D734A" points="171.228,123.702 169.339,123.702 169.339,131.241 175.415,131.241 175.415,129.853 
		171.228,129.853 	"/>
	<path fill="#8D734A" d="M177.654,131.234h0.805c0,0.709-0.147,0.942-0.805,1.009l0.209,0.475c0.466-0.008,1-0.026,1.283-0.707
		c0.105-0.261,0.115-0.582,0.115-0.861v-1.299h-1.607V131.234z"/>
	<polygon fill="#8D734A" points="189.029,123.702 187.139,123.702 187.139,131.241 193.216,131.241 193.216,129.853 
		189.029,129.853 	"/>
	<polygon fill="#8D734A" points="199.349,123.702 197.459,123.702 197.459,131.241 203.538,131.241 203.538,129.853 
		199.349,129.853 	"/>
	<path fill="#8D734A" d="M213.261,128.689c-0.246,0.458-0.75,1.419-2.384,1.419c-1.433,0-2.722-0.98-2.722-2.625
		c0-1.443,0.971-2.63,2.68-2.63c1.464,0,2.049,0.896,2.254,1.218l2.071-0.256c-0.981-2.158-3.461-2.349-4.325-2.349
		c-2.38,0-4.646,1.151-4.646,3.994c0,2.638,1.858,4.037,4.537,4.037c1.924,0,2.929-0.631,3.539-1.185
		c0.672-0.62,0.843-1.166,0.98-1.636L213.261,128.689z"/>
</g>
</svg>
